<?xml version="1.0" encoding="UTF-8" standalone="no"?>
<!DOCTYPE svg PUBLIC "-//W3C//DTD SVG 1.1//EN"
 "http://www.w3.org/Graphics/SVG/1.1/DTD/svg11.dtd">
<!-- Generated by graphviz version 2.40.1 (20161225.0304)
 -->
<!-- Title: dependencies Pages: 1 -->
<svg width="608pt" height="284pt"
 viewBox="0.00 0.00 608.00 284.00" xmlns="http://www.w3.org/2000/svg" xmlns:xlink="http://www.w3.org/1999/xlink">
<g id="graph0" class="graph" transform="scale(1 1) rotate(0) translate(4 280)">
<title>dependencies</title>
<polygon fill="#ffffff" stroke="transparent" points="-4,4 -4,-280 604,-280 604,4 -4,4"/>
<text text-anchor="start" x="279.0091" y="-42.4" font-family="sans-serif" font-weight="bold" font-size="14.00" fill="#000000">Legend</text>
<polygon fill="#ffffb3" stroke="transparent" points="66,-10 66,-30 86,-30 86,-10 66,-10"/>
<text text-anchor="start" x="89.629" y="-15.4" font-family="sans-serif" font-size="14.00" fill="#000000"> &#160;Declarations</text>
<polygon fill="#8dd3c7" stroke="transparent" points="179,-10 179,-30 199,-30 199,-10 179,-10"/>
<text text-anchor="start" x="202.7251" y="-15.4" font-family="sans-serif" font-size="14.00" fill="#000000"> &#160;Module</text>
<polygon fill="#80b1d3" stroke="transparent" points="265,-10 265,-30 285,-30 285,-10 265,-10"/>
<text text-anchor="start" x="288.7812" y="-15.4" font-family="sans-serif" font-size="14.00" fill="#000000"> &#160;Bootstrap</text>
<polygon fill="#fdb462" stroke="transparent" points="362,-10 362,-30 382,-30 382,-10 362,-10"/>
<text text-anchor="start" x="385.6732" y="-15.4" font-family="sans-serif" font-size="14.00" fill="#000000"> &#160;Providers</text>
<polygon fill="#fb8072" stroke="transparent" points="458,-10 458,-30 478,-30 478,-10 458,-10"/>
<text text-anchor="start" x="481.7258" y="-15.4" font-family="sans-serif" font-size="14.00" fill="#000000"> &#160;Exports</text>
<g id="clust1" class="cluster">
<title>cluster_AuthModule</title>
<polygon fill="none" stroke="#000000" stroke-dasharray="1,5" points="8,-70 8,-268 592,-268 592,-70 8,-70"/>
</g>
<g id="clust2" class="cluster">
<title>cluster_AuthModule_declarations</title>
<polygon fill="none" stroke="#000000" points="158,-78 158,-130 584,-130 584,-78 158,-78"/>
</g>
<g id="clust7" class="cluster">
<title>cluster_AuthModule_exports</title>
<polygon fill="none" stroke="#000000" points="230,-208 230,-260 382,-260 382,-208 230,-208"/>
</g>
<g id="clust9" class="cluster">
<title>cluster_AuthModule_providers</title>
<polygon fill="none" stroke="#000000" points="16,-78 16,-130 150,-130 150,-78 16,-78"/>
</g>
<!-- LoginComponent -->
<g id="node1" class="node">
<title>LoginComponent</title>
<polygon fill="#ffffb3" stroke="#000000" points="576.2758,-122 461.7242,-122 461.7242,-86 576.2758,-86 576.2758,-122"/>
<text text-anchor="middle" x="519" y="-99.8" font-family="Times,serif" font-size="14.00" fill="#000000">LoginComponent</text>
</g>
<!-- AuthModule -->
<g id="node4" class="node">
<title>AuthModule</title>
<polygon fill="#8dd3c7" stroke="#000000" points="349.5482,-187 346.5482,-191 325.5482,-191 322.5482,-187 262.4518,-187 262.4518,-151 349.5482,-151 349.5482,-187"/>
<text text-anchor="middle" x="306" y="-164.8" font-family="Times,serif" font-size="14.00" fill="#000000">AuthModule</text>
</g>
<!-- LoginComponent&#45;&gt;AuthModule -->
<g id="edge1" class="edge">
<title>LoginComponent&#45;&gt;AuthModule</title>
<path fill="none" stroke="#000000" d="M519,-122.1061C519,-141.3391 519,-169 519,-169 519,-169 359.6177,-169 359.6177,-169"/>
<polygon fill="#000000" stroke="#000000" points="359.6177,-165.5001 349.6177,-169 359.6177,-172.5001 359.6177,-165.5001"/>
</g>
<!-- RegisterComponent -->
<g id="node2" class="node">
<title>RegisterComponent</title>
<polygon fill="#ffffb3" stroke="#000000" points="443.9846,-122 316.0154,-122 316.0154,-86 443.9846,-86 443.9846,-122"/>
<text text-anchor="middle" x="380" y="-99.8" font-family="Times,serif" font-size="14.00" fill="#000000">RegisterComponent</text>
</g>
<!-- RegisterComponent&#45;&gt;AuthModule -->
<g id="edge2" class="edge">
<title>RegisterComponent&#45;&gt;AuthModule</title>
<path fill="none" stroke="#000000" d="M332.8906,-122.1061C332.8906,-122.1061 332.8906,-140.991 332.8906,-140.991"/>
<polygon fill="#000000" stroke="#000000" points="329.3907,-140.9909 332.8906,-150.991 336.3907,-140.991 329.3907,-140.9909"/>
</g>
<!-- AuthNavComponent -->
<g id="node3" class="node">
<title>AuthNavComponent</title>
<polygon fill="#ffffb3" stroke="#000000" points="298.1513,-122 165.8487,-122 165.8487,-86 298.1513,-86 298.1513,-122"/>
<text text-anchor="middle" x="232" y="-99.8" font-family="Times,serif" font-size="14.00" fill="#000000">AuthNavComponent</text>
</g>
<!-- AuthNavComponent&#45;&gt;AuthModule -->
<g id="edge3" class="edge">
<title>AuthNavComponent&#45;&gt;AuthModule</title>
<path fill="none" stroke="#000000" d="M280.2759,-122.1061C280.2759,-122.1061 280.2759,-140.991 280.2759,-140.991"/>
<polygon fill="#000000" stroke="#000000" points="276.776,-140.9909 280.2759,-150.991 283.776,-140.991 276.776,-140.9909"/>
</g>
<!-- AuthNavComponent  -->
<g id="node5" class="node">
<title>AuthNavComponent </title>
<polygon fill="#fb8072" stroke="#000000" points="374.1509,-252 237.8491,-252 237.8491,-216 374.1509,-216 374.1509,-252"/>
<text text-anchor="middle" x="306" y="-229.8" font-family="Times,serif" font-size="14.00" fill="#000000">AuthNavComponent </text>
</g>
<!-- AuthModule&#45;&gt;AuthNavComponent  -->
<g id="edge4" class="edge">
<title>AuthModule&#45;&gt;AuthNavComponent </title>
<path fill="none" stroke="#000000" stroke-dasharray="5,2" d="M306,-187.1061C306,-187.1061 306,-205.991 306,-205.991"/>
<polygon fill="#000000" stroke="#000000" points="302.5001,-205.9909 306,-215.991 309.5001,-205.991 302.5001,-205.9909"/>
</g>
<!-- AuthService -->
<g id="node6" class="node">
<title>AuthService</title>
<ellipse fill="#fdb462" stroke="#000000" cx="83" cy="-104" rx="59.1083" ry="18"/>
<text text-anchor="middle" x="83" y="-99.8" font-family="Times,serif" font-size="14.00" fill="#000000">AuthService</text>
</g>
<!-- AuthService&#45;&gt;AuthModule -->
<g id="edge5" class="edge">
<title>AuthService&#45;&gt;AuthModule</title>
<path fill="none" stroke="#000000" d="M83,-122.1061C83,-141.3391 83,-169 83,-169 83,-169 252.2084,-169 252.2084,-169"/>
<polygon fill="#000000" stroke="#000000" points="252.2085,-172.5001 262.2084,-169 252.2084,-165.5001 252.2085,-172.5001"/>
</g>
</g>
</svg>
