<?xml version="1.0" encoding="UTF-8" standalone="no"?>
<!DOCTYPE svg PUBLIC "-//W3C//DTD SVG 1.1//EN"
 "http://www.w3.org/Graphics/SVG/1.1/DTD/svg11.dtd">
<!-- Generated by graphviz version 2.40.1 (20161225.0304)
 -->
<!-- Title: dependencies Pages: 1 -->
<svg width="1325pt" height="211pt"
 viewBox="0.00 0.00 1325.00 211.00" xmlns="http://www.w3.org/2000/svg" xmlns:xlink="http://www.w3.org/1999/xlink">
<g id="graph0" class="graph" transform="scale(1 1) rotate(0) translate(4 207)">
<title>dependencies</title>
<polygon fill="#ffffff" stroke="transparent" points="-4,4 -4,-207 1321,-207 1321,4 -4,4"/>
<text text-anchor="start" x="637.5091" y="-42.4" font-family="sans-serif" font-weight="bold" font-size="14.00" fill="#000000">Legend</text>
<polygon fill="#ffffb3" stroke="transparent" points="424.5,-10 424.5,-30 444.5,-30 444.5,-10 424.5,-10"/>
<text text-anchor="start" x="448.129" y="-15.4" font-family="sans-serif" font-size="14.00" fill="#000000"> &#160;Declarations</text>
<polygon fill="#8dd3c7" stroke="transparent" points="537.5,-10 537.5,-30 557.5,-30 557.5,-10 537.5,-10"/>
<text text-anchor="start" x="561.2251" y="-15.4" font-family="sans-serif" font-size="14.00" fill="#000000"> &#160;Module</text>
<polygon fill="#80b1d3" stroke="transparent" points="623.5,-10 623.5,-30 643.5,-30 643.5,-10 623.5,-10"/>
<text text-anchor="start" x="647.2812" y="-15.4" font-family="sans-serif" font-size="14.00" fill="#000000"> &#160;Bootstrap</text>
<polygon fill="#fdb462" stroke="transparent" points="720.5,-10 720.5,-30 740.5,-30 740.5,-10 720.5,-10"/>
<text text-anchor="start" x="744.1732" y="-15.4" font-family="sans-serif" font-size="14.00" fill="#000000"> &#160;Providers</text>
<polygon fill="#fb8072" stroke="transparent" points="816.5,-10 816.5,-30 836.5,-30 836.5,-10 816.5,-10"/>
<text text-anchor="start" x="840.2258" y="-15.4" font-family="sans-serif" font-size="14.00" fill="#000000"> &#160;Exports</text>
<g id="clust1" class="cluster">
<title>cluster_CompetitionsModule</title>
<polygon fill="none" stroke="#000000" stroke-dasharray="1,5" points="8,-70 8,-195 1309,-195 1309,-70 8,-70"/>
</g>
<g id="clust2" class="cluster">
<title>cluster_CompetitionsModule_declarations</title>
<polygon fill="none" stroke="#000000" points="856,-78 856,-130 1301,-130 1301,-78 856,-78"/>
</g>
<g id="clust6" class="cluster">
<title>cluster_CompetitionsModule_imports</title>
<polygon fill="none" stroke="#000000" points="536,-78 536,-130 848,-130 848,-78 536,-78"/>
</g>
<g id="clust9" class="cluster">
<title>cluster_CompetitionsModule_providers</title>
<polygon fill="none" stroke="#000000" points="16,-78 16,-130 528,-130 528,-78 16,-78"/>
</g>
<!-- CompetitionComponent -->
<g id="node1" class="node">
<title>CompetitionComponent</title>
<polygon fill="#ffffb3" stroke="#000000" points="1292.837,-122 1141.163,-122 1141.163,-86 1292.837,-86 1292.837,-122"/>
<text text-anchor="middle" x="1217" y="-99.8" font-family="Times,serif" font-size="14.00" fill="#000000">CompetitionComponent</text>
</g>
<!-- CompetitionsModule -->
<g id="node4" class="node">
<title>CompetitionsModule</title>
<polygon fill="#8dd3c7" stroke="#000000" points="738.4986,-187 735.4986,-191 714.4986,-191 711.4986,-187 603.5014,-187 603.5014,-151 738.4986,-151 738.4986,-187"/>
<text text-anchor="middle" x="671" y="-164.8" font-family="Times,serif" font-size="14.00" fill="#000000">CompetitionsModule</text>
</g>
<!-- CompetitionComponent&#45;&gt;CompetitionsModule -->
<g id="edge1" class="edge">
<title>CompetitionComponent&#45;&gt;CompetitionsModule</title>
<path fill="none" stroke="#000000" d="M1217,-122.2921C1217,-144.2057 1217,-178 1217,-178 1217,-178 748.7724,-178 748.7724,-178"/>
<polygon fill="#000000" stroke="#000000" points="748.7724,-174.5001 738.7724,-178 748.7724,-181.5001 748.7724,-174.5001"/>
</g>
<!-- PlayersComponent -->
<g id="node2" class="node">
<title>PlayersComponent</title>
<polygon fill="#ffffb3" stroke="#000000" points="1123.0409,-122 1000.9591,-122 1000.9591,-86 1123.0409,-86 1123.0409,-122"/>
<text text-anchor="middle" x="1062" y="-99.8" font-family="Times,serif" font-size="14.00" fill="#000000">PlayersComponent</text>
</g>
<!-- PlayersComponent&#45;&gt;CompetitionsModule -->
<g id="edge2" class="edge">
<title>PlayersComponent&#45;&gt;CompetitionsModule</title>
<path fill="none" stroke="#000000" d="M1062,-122.1061C1062,-141.3391 1062,-169 1062,-169 1062,-169 748.6606,-169 748.6606,-169"/>
<polygon fill="#000000" stroke="#000000" points="748.6607,-165.5001 738.6606,-169 748.6606,-172.5001 748.6607,-165.5001"/>
</g>
<!-- TablesComponent -->
<g id="node3" class="node">
<title>TablesComponent</title>
<polygon fill="#ffffb3" stroke="#000000" points="982.1499,-122 863.8501,-122 863.8501,-86 982.1499,-86 982.1499,-122"/>
<text text-anchor="middle" x="923" y="-99.8" font-family="Times,serif" font-size="14.00" fill="#000000">TablesComponent</text>
</g>
<!-- TablesComponent&#45;&gt;CompetitionsModule -->
<g id="edge3" class="edge">
<title>TablesComponent&#45;&gt;CompetitionsModule</title>
<path fill="none" stroke="#000000" d="M923,-122.027C923,-138.3976 923,-160 923,-160 923,-160 748.5314,-160 748.5314,-160"/>
<polygon fill="#000000" stroke="#000000" points="748.5314,-156.5001 738.5314,-160 748.5313,-163.5001 748.5314,-156.5001"/>
</g>
<!-- CompetitionsRoutingModule -->
<g id="node5" class="node">
<title>CompetitionsRoutingModule</title>
<polygon fill="#8dd3c7" stroke="#000000" points="840.1164,-122 837.1164,-126 816.1164,-126 813.1164,-122 659.8836,-122 659.8836,-86 840.1164,-86 840.1164,-122"/>
<text text-anchor="middle" x="750" y="-99.8" font-family="Times,serif" font-size="14.00" fill="#000000">CompetitionsRoutingModule</text>
</g>
<!-- CompetitionsRoutingModule&#45;&gt;CompetitionsModule -->
<g id="edge4" class="edge">
<title>CompetitionsRoutingModule&#45;&gt;CompetitionsModule</title>
<path fill="none" stroke="#000000" d="M699.2206,-122.1061C699.2206,-122.1061 699.2206,-140.991 699.2206,-140.991"/>
<polygon fill="#000000" stroke="#000000" points="695.7206,-140.9909 699.2206,-150.991 702.7206,-140.991 695.7206,-140.9909"/>
</g>
<!-- SharedModule -->
<g id="node6" class="node">
<title>SharedModule</title>
<polygon fill="#8dd3c7" stroke="#000000" points="642.4231,-122 639.4231,-126 618.4231,-126 615.4231,-122 543.5769,-122 543.5769,-86 642.4231,-86 642.4231,-122"/>
<text text-anchor="middle" x="593" y="-99.8" font-family="Times,serif" font-size="14.00" fill="#000000">SharedModule</text>
</g>
<!-- SharedModule&#45;&gt;CompetitionsModule -->
<g id="edge5" class="edge">
<title>SharedModule&#45;&gt;CompetitionsModule</title>
<path fill="none" stroke="#000000" d="M622.8559,-122.1061C622.8559,-122.1061 622.8559,-140.991 622.8559,-140.991"/>
<polygon fill="#000000" stroke="#000000" points="619.356,-140.9909 622.8559,-150.991 626.356,-140.991 619.356,-140.9909"/>
</g>
<!-- CompetitionsService -->
<g id="node7" class="node">
<title>CompetitionsService</title>
<ellipse fill="#fdb462" stroke="#000000" cx="428" cy="-104" rx="92.0702" ry="18"/>
<text text-anchor="middle" x="428" y="-99.8" font-family="Times,serif" font-size="14.00" fill="#000000">CompetitionsService</text>
</g>
<!-- CompetitionsService&#45;&gt;CompetitionsModule -->
<g id="edge6" class="edge">
<title>CompetitionsService&#45;&gt;CompetitionsModule</title>
<path fill="none" stroke="#000000" d="M428,-122.027C428,-138.3976 428,-160 428,-160 428,-160 593.311,-160 593.311,-160"/>
<polygon fill="#000000" stroke="#000000" points="593.311,-163.5001 603.311,-160 593.3109,-156.5001 593.311,-163.5001"/>
</g>
<!-- TablesService -->
<g id="node8" class="node">
<title>TablesService</title>
<ellipse fill="#fdb462" stroke="#000000" cx="252" cy="-104" rx="65.9658" ry="18"/>
<text text-anchor="middle" x="252" y="-99.8" font-family="Times,serif" font-size="14.00" fill="#000000">TablesService</text>
</g>
<!-- TablesService&#45;&gt;CompetitionsModule -->
<g id="edge7" class="edge">
<title>TablesService&#45;&gt;CompetitionsModule</title>
<path fill="none" stroke="#000000" d="M252,-122.1061C252,-141.3391 252,-169 252,-169 252,-169 593.2147,-169 593.2147,-169"/>
<polygon fill="#000000" stroke="#000000" points="593.2148,-172.5001 603.2147,-169 593.2147,-165.5001 593.2148,-172.5001"/>
</g>
<!-- PlayersServices -->
<g id="node9" class="node">
<title>PlayersServices</title>
<ellipse fill="#fdb462" stroke="#000000" cx="96" cy="-104" rx="72.3439" ry="18"/>
<text text-anchor="middle" x="96" y="-99.8" font-family="Times,serif" font-size="14.00" fill="#000000">PlayersServices</text>
</g>
<!-- PlayersServices&#45;&gt;CompetitionsModule -->
<g id="edge8" class="edge">
<title>PlayersServices&#45;&gt;CompetitionsModule</title>
<path fill="none" stroke="#000000" d="M96,-122.2921C96,-144.2057 96,-178 96,-178 96,-178 593.3493,-178 593.3493,-178"/>
<polygon fill="#000000" stroke="#000000" points="593.3494,-181.5001 603.3493,-178 593.3493,-174.5001 593.3494,-181.5001"/>
</g>
</g>
</svg>
