<?xml version="1.0" encoding="UTF-8" standalone="no"?>
<!DOCTYPE svg PUBLIC "-//W3C//DTD SVG 1.1//EN"
 "http://www.w3.org/Graphics/SVG/1.1/DTD/svg11.dtd">
<!-- Generated by graphviz version 2.40.1 (20161225.0304)
 -->
<!-- Title: dependencies Pages: 1 -->
<svg width="5028pt" height="436pt"
 viewBox="0.00 0.00 5028.00 436.00" xmlns="http://www.w3.org/2000/svg" xmlns:xlink="http://www.w3.org/1999/xlink">
<g id="graph0" class="graph" transform="scale(1 1) rotate(0) translate(4 432)">
<title>dependencies</title>
<polygon fill="#ffffff" stroke="transparent" points="-4,4 -4,-432 5024,-432 5024,4 -4,4"/>
<text text-anchor="start" x="2489.0091" y="-42.4" font-family="sans-serif" font-weight="bold" font-size="14.00" fill="#000000">Legend</text>
<polygon fill="#ffffb3" stroke="transparent" points="2276,-10 2276,-30 2296,-30 2296,-10 2276,-10"/>
<text text-anchor="start" x="2299.629" y="-15.4" font-family="sans-serif" font-size="14.00" fill="#000000"> &#160;Declarations</text>
<polygon fill="#8dd3c7" stroke="transparent" points="2389,-10 2389,-30 2409,-30 2409,-10 2389,-10"/>
<text text-anchor="start" x="2412.7251" y="-15.4" font-family="sans-serif" font-size="14.00" fill="#000000"> &#160;Module</text>
<polygon fill="#80b1d3" stroke="transparent" points="2475,-10 2475,-30 2495,-30 2495,-10 2475,-10"/>
<text text-anchor="start" x="2498.7812" y="-15.4" font-family="sans-serif" font-size="14.00" fill="#000000"> &#160;Bootstrap</text>
<polygon fill="#fdb462" stroke="transparent" points="2572,-10 2572,-30 2592,-30 2592,-10 2572,-10"/>
<text text-anchor="start" x="2595.6732" y="-15.4" font-family="sans-serif" font-size="14.00" fill="#000000"> &#160;Providers</text>
<polygon fill="#fb8072" stroke="transparent" points="2668,-10 2668,-30 2688,-30 2688,-10 2668,-10"/>
<text text-anchor="start" x="2691.7258" y="-15.4" font-family="sans-serif" font-size="14.00" fill="#000000"> &#160;Exports</text>
<g id="clust1" class="cluster">
<title>cluster_AppModule</title>
<polygon fill="none" stroke="#000000" stroke-dasharray="1,5" points="1501,-146 1501,-420 2434,-420 2434,-146 1501,-146"/>
</g>
<g id="clust2" class="cluster">
<title>cluster_AppModule_declarations</title>
<polygon fill="none" stroke="#000000" points="1883,-230 1883,-282 2426,-282 2426,-230 1883,-230"/>
</g>
<g id="clust7" class="cluster">
<title>cluster_AppModule_imports</title>
<polygon fill="none" stroke="#000000" points="1509,-154 1509,-282 1875,-282 1875,-154 1509,-154"/>
</g>
<g id="clust9" class="cluster">
<title>cluster_AppModule_bootstrap</title>
<polygon fill="none" stroke="#000000" points="1756,-360 1756,-412 1880,-412 1880,-360 1756,-360"/>
</g>
<g id="clust17" class="cluster">
<title>cluster_AuthModule</title>
<polygon fill="none" stroke="#000000" stroke-dasharray="1,5" points="8,-146 8,-214 300,-214 300,-146 8,-146"/>
</g>
<g id="clust18" class="cluster">
<title>cluster_AuthModule_declarations</title>
<polygon fill="none" stroke="#000000" points="16,-154 16,-206 292,-206 292,-154 16,-154"/>
</g>
<g id="clust25" class="cluster">
<title>cluster_CompetitionsModule</title>
<polygon fill="none" stroke="#000000" stroke-dasharray="1,5" points="308,-146 308,-214 1493,-214 1493,-146 308,-146"/>
</g>
<g id="clust26" class="cluster">
<title>cluster_CompetitionsModule_declarations</title>
<polygon fill="none" stroke="#000000" points="1040,-154 1040,-206 1485,-206 1485,-154 1040,-154"/>
</g>
<g id="clust30" class="cluster">
<title>cluster_CompetitionsModule_imports</title>
<polygon fill="none" stroke="#000000" points="836,-154 836,-206 1032,-206 1032,-154 836,-154"/>
</g>
<g id="clust33" class="cluster">
<title>cluster_CompetitionsModule_providers</title>
<polygon fill="none" stroke="#000000" points="316,-154 316,-206 828,-206 828,-154 316,-154"/>
</g>
<g id="clust40" class="cluster">
<title>cluster_CoreModule</title>
<polygon fill="none" stroke="#000000" stroke-dasharray="1,5" points="1491,-70 1491,-138 1914,-138 1914,-70 1491,-70"/>
</g>
<g id="clust45" class="cluster">
<title>cluster_CoreModule_providers</title>
<polygon fill="none" stroke="#000000" points="1499,-78 1499,-130 1906,-130 1906,-78 1499,-78"/>
</g>
<g id="clust46" class="cluster">
<title>cluster_SharedModule</title>
<polygon fill="none" stroke="#000000" stroke-dasharray="1,5" points="2442,-222 2442,-290 5012,-290 5012,-222 2442,-222"/>
</g>
<g id="clust47" class="cluster">
<title>cluster_SharedModule_declarations</title>
<polygon fill="none" stroke="#000000" points="3744,-230 3744,-282 5004,-282 5004,-230 3744,-230"/>
</g>
<g id="clust57" class="cluster">
<title>cluster_SharedModule_exports</title>
<polygon fill="none" stroke="#000000" points="2450,-230 2450,-282 3736,-282 3736,-230 2450,-230"/>
</g>
<!-- AppComponent -->
<g id="node1" class="node">
<title>AppComponent</title>
<polygon fill="#ffffb3" stroke="#000000" points="2141.9399,-274 2036.0601,-274 2036.0601,-238 2141.9399,-238 2141.9399,-274"/>
<text text-anchor="middle" x="2089" y="-251.8" font-family="Times,serif" font-size="14.00" fill="#000000">AppComponent</text>
</g>
<!-- AppModule -->
<g id="node5" class="node">
<title>AppModule</title>
<polygon fill="#8dd3c7" stroke="#000000" points="1859.6571,-339 1856.6571,-343 1835.6571,-343 1832.6571,-339 1776.3429,-339 1776.3429,-303 1859.6571,-303 1859.6571,-339"/>
<text text-anchor="middle" x="1818" y="-316.8" font-family="Times,serif" font-size="14.00" fill="#000000">AppModule</text>
</g>
<!-- AppComponent&#45;&gt;AppModule -->
<g id="edge1" class="edge">
<title>AppComponent&#45;&gt;AppModule</title>
<path fill="none" stroke="#000000" d="M2089,-274.027C2089,-290.3976 2089,-312 2089,-312 2089,-312 1869.7498,-312 1869.7498,-312"/>
<polygon fill="#000000" stroke="#000000" points="1869.7499,-308.5001 1859.7498,-312 1869.7498,-315.5001 1869.7499,-308.5001"/>
</g>
<!-- FixturesComponent -->
<g id="node2" class="node">
<title>FixturesComponent</title>
<polygon fill="#ffffb3" stroke="#000000" points="2018.7162,-274 1891.2838,-274 1891.2838,-238 2018.7162,-238 2018.7162,-274"/>
<text text-anchor="middle" x="1955" y="-251.8" font-family="Times,serif" font-size="14.00" fill="#000000">FixturesComponent</text>
</g>
<!-- FixturesComponent&#45;&gt;AppModule -->
<g id="edge2" class="edge">
<title>FixturesComponent&#45;&gt;AppModule</title>
<path fill="none" stroke="#000000" d="M1891.2033,-247C1866.0731,-247 1843.0969,-247 1843.0969,-247 1843.0969,-247 1843.0969,-292.7079 1843.0969,-292.7079"/>
<polygon fill="#000000" stroke="#000000" points="1839.597,-292.7078 1843.0969,-302.7079 1846.597,-292.7079 1839.597,-292.7078"/>
</g>
<!-- HomeComponent -->
<g id="node3" class="node">
<title>HomeComponent</title>
<polygon fill="#ffffb3" stroke="#000000" points="2417.5451,-274 2302.4549,-274 2302.4549,-238 2417.5451,-238 2417.5451,-274"/>
<text text-anchor="middle" x="2360" y="-251.8" font-family="Times,serif" font-size="14.00" fill="#000000">HomeComponent</text>
</g>
<!-- HomeComponent&#45;&gt;AppModule -->
<g id="edge3" class="edge">
<title>HomeComponent&#45;&gt;AppModule</title>
<path fill="none" stroke="#000000" d="M2360,-274.2921C2360,-296.2057 2360,-330 2360,-330 2360,-330 1870.0788,-330 1870.0788,-330"/>
<polygon fill="#000000" stroke="#000000" points="1870.0789,-326.5001 1860.0788,-330 1870.0788,-333.5001 1870.0789,-326.5001"/>
</g>
<!-- ContactComponent -->
<g id="node4" class="node">
<title>ContactComponent</title>
<polygon fill="#ffffb3" stroke="#000000" points="2284.3795,-274 2159.6205,-274 2159.6205,-238 2284.3795,-238 2284.3795,-274"/>
<text text-anchor="middle" x="2222" y="-251.8" font-family="Times,serif" font-size="14.00" fill="#000000">ContactComponent</text>
</g>
<!-- ContactComponent&#45;&gt;AppModule -->
<g id="edge4" class="edge">
<title>ContactComponent&#45;&gt;AppModule</title>
<path fill="none" stroke="#000000" d="M2222,-274.1061C2222,-293.3391 2222,-321 2222,-321 2222,-321 1869.7134,-321 1869.7134,-321"/>
<polygon fill="#000000" stroke="#000000" points="1869.7135,-317.5001 1859.7134,-321 1869.7134,-324.5001 1869.7135,-317.5001"/>
</g>
<!-- AppComponent  -->
<g id="node11" class="node">
<title>AppComponent </title>
<polygon fill="#80b1d3" stroke="#000000" points="1872.439,-404 1763.561,-404 1763.561,-368 1872.439,-368 1872.439,-404"/>
<text text-anchor="middle" x="1818" y="-381.8" font-family="Times,serif" font-size="14.00" fill="#000000">AppComponent </text>
</g>
<!-- AppModule&#45;&gt;AppComponent  -->
<g id="edge10" class="edge">
<title>AppModule&#45;&gt;AppComponent </title>
<path fill="none" stroke="#000000" stroke-dasharray="1,5" d="M1818,-339.1061C1818,-339.1061 1818,-357.991 1818,-357.991"/>
<polygon fill="#000000" stroke="#000000" points="1814.5001,-357.9909 1818,-367.991 1821.5001,-357.991 1814.5001,-357.9909"/>
</g>
<!-- AppRoutingModule -->
<g id="node6" class="node">
<title>AppRoutingModule</title>
<polygon fill="#8dd3c7" stroke="#000000" points="1645.2744,-198 1642.2744,-202 1621.2744,-202 1618.2744,-198 1516.7256,-198 1516.7256,-162 1645.2744,-162 1645.2744,-198"/>
<text text-anchor="middle" x="1581" y="-175.8" font-family="Times,serif" font-size="14.00" fill="#000000">AppRoutingModule</text>
</g>
<!-- AppRoutingModule&#45;&gt;AppModule -->
<g id="edge5" class="edge">
<title>AppRoutingModule&#45;&gt;AppModule</title>
<path fill="none" stroke="#000000" d="M1613.6371,-198.2067C1613.6371,-235.0559 1613.6371,-315 1613.6371,-315 1613.6371,-315 1766.151,-315 1766.151,-315"/>
<polygon fill="#000000" stroke="#000000" points="1766.151,-318.5001 1776.151,-315 1766.1509,-311.5001 1766.151,-318.5001"/>
</g>
<!-- AuthModule -->
<g id="node7" class="node">
<title>AuthModule</title>
<polygon fill="#8dd3c7" stroke="#000000" points="1604.5482,-274 1601.5482,-278 1580.5482,-278 1577.5482,-274 1517.4518,-274 1517.4518,-238 1604.5482,-238 1604.5482,-274"/>
<text text-anchor="middle" x="1561" y="-251.8" font-family="Times,serif" font-size="14.00" fill="#000000">AuthModule</text>
</g>
<!-- AuthModule&#45;&gt;AppModule -->
<g id="edge6" class="edge">
<title>AuthModule&#45;&gt;AppModule</title>
<path fill="none" stroke="#000000" d="M1561,-274.2843C1561,-295.3211 1561,-327 1561,-327 1561,-327 1766.1365,-327 1766.1365,-327"/>
<polygon fill="#000000" stroke="#000000" points="1766.1366,-330.5001 1776.1365,-327 1766.1365,-323.5001 1766.1366,-330.5001"/>
</g>
<!-- SharedModule -->
<g id="node8" class="node">
<title>SharedModule</title>
<polygon fill="#8dd3c7" stroke="#000000" points="1867.4231,-198 1864.4231,-202 1843.4231,-202 1840.4231,-198 1768.5769,-198 1768.5769,-162 1867.4231,-162 1867.4231,-198"/>
<text text-anchor="middle" x="1818" y="-175.8" font-family="Times,serif" font-size="14.00" fill="#000000">SharedModule</text>
</g>
<!-- SharedModule&#45;&gt;AppModule -->
<g id="edge7" class="edge">
<title>SharedModule&#45;&gt;AppModule</title>
<path fill="none" stroke="#000000" d="M1826.3656,-198.1446C1826.3656,-198.1446 1826.3656,-292.925 1826.3656,-292.925"/>
<polygon fill="#000000" stroke="#000000" points="1822.8657,-292.925 1826.3656,-302.925 1829.8657,-292.925 1822.8657,-292.925"/>
</g>
<!-- SharedModule&#45;&gt;AuthModule -->
<g id="edge13" class="edge">
<title>SharedModule&#45;&gt;AuthModule</title>
<path fill="none" stroke="#000000" d="M1771.2499,-198.0511C1771.2499,-212.373 1771.2499,-230 1771.2499,-230 1771.2499,-230 1561,-230 1561,-230 1561,-230 1561,-230.7942 1561,-230.7942"/>
<polygon fill="#000000" stroke="#000000" points="1557.5001,-227.9421 1561,-237.9421 1564.5001,-227.9422 1557.5001,-227.9421"/>
</g>
<!-- CompetitionsModule -->
<g id="node10" class="node">
<title>CompetitionsModule</title>
<polygon fill="#8dd3c7" stroke="#000000" points="1757.4986,-274 1754.4986,-278 1733.4986,-278 1730.4986,-274 1622.5014,-274 1622.5014,-238 1757.4986,-238 1757.4986,-274"/>
<text text-anchor="middle" x="1690" y="-251.8" font-family="Times,serif" font-size="14.00" fill="#000000">CompetitionsModule</text>
</g>
<!-- SharedModule&#45;&gt;CompetitionsModule -->
<g id="edge18" class="edge">
<title>SharedModule&#45;&gt;CompetitionsModule</title>
<path fill="none" stroke="#000000" d="M1773.7108,-198.0109C1773.7108,-220.4852 1773.7108,-256 1773.7108,-256 1773.7108,-256 1767.5705,-256 1767.5705,-256"/>
<polygon fill="#000000" stroke="#000000" points="1767.5706,-252.5001 1757.5705,-256 1767.5705,-259.5001 1767.5706,-252.5001"/>
</g>
<!-- LoaderComponent  -->
<g id="node32" class="node">
<title>LoaderComponent </title>
<polygon fill="#fb8072" stroke="#000000" points="3174.4757,-274 3049.5243,-274 3049.5243,-238 3174.4757,-238 3174.4757,-274"/>
<text text-anchor="middle" x="3112" y="-251.8" font-family="Times,serif" font-size="14.00" fill="#000000">LoaderComponent </text>
</g>
<!-- SharedModule&#45;&gt;LoaderComponent  -->
<g id="edge33" class="edge">
<title>SharedModule&#45;&gt;LoaderComponent </title>
<path fill="none" stroke="#000000" stroke-dasharray="5,2" d="M1867.5391,-188C2104.6261,-188 3112,-188 3112,-188 3112,-188 3112,-227.7772 3112,-227.7772"/>
<polygon fill="#000000" stroke="#000000" points="3108.5001,-227.7772 3112,-237.7772 3115.5001,-227.7773 3108.5001,-227.7772"/>
</g>
<!-- AuthNavComponent  -->
<g id="node33" class="node">
<title>AuthNavComponent </title>
<polygon fill="#fb8072" stroke="#000000" points="3032.1509,-274 2895.8491,-274 2895.8491,-238 3032.1509,-238 3032.1509,-274"/>
<text text-anchor="middle" x="2964" y="-251.8" font-family="Times,serif" font-size="14.00" fill="#000000">AuthNavComponent </text>
</g>
<!-- SharedModule&#45;&gt;AuthNavComponent  -->
<g id="edge34" class="edge">
<title>SharedModule&#45;&gt;AuthNavComponent </title>
<path fill="none" stroke="#000000" stroke-dasharray="5,2" d="M1867.2422,-190C2086.5938,-190 2964,-190 2964,-190 2964,-190 2964,-227.9652 2964,-227.9652"/>
<polygon fill="#000000" stroke="#000000" points="2960.5001,-227.9652 2964,-237.9652 2967.5001,-227.9652 2960.5001,-227.9652"/>
</g>
<!-- FooterComponent  -->
<g id="node34" class="node">
<title>FooterComponent </title>
<polygon fill="#fb8072" stroke="#000000" points="2877.8814,-274 2756.1186,-274 2756.1186,-238 2877.8814,-238 2877.8814,-274"/>
<text text-anchor="middle" x="2817" y="-251.8" font-family="Times,serif" font-size="14.00" fill="#000000">FooterComponent </text>
</g>
<!-- SharedModule&#45;&gt;FooterComponent  -->
<g id="edge35" class="edge">
<title>SharedModule&#45;&gt;FooterComponent </title>
<path fill="none" stroke="#000000" stroke-dasharray="5,2" d="M1867.5406,-192C2069.1181,-192 2817,-192 2817,-192 2817,-192 2817,-227.8314 2817,-227.8314"/>
<polygon fill="#000000" stroke="#000000" points="2813.5001,-227.8313 2817,-237.8314 2820.5001,-227.8314 2813.5001,-227.8313"/>
</g>
<!-- NotFoundComponent  -->
<g id="node35" class="node">
<title>NotFoundComponent </title>
<polygon fill="#fb8072" stroke="#000000" points="2738.6127,-274 2597.3873,-274 2597.3873,-238 2738.6127,-238 2738.6127,-274"/>
<text text-anchor="middle" x="2668" y="-251.8" font-family="Times,serif" font-size="14.00" fill="#000000">NotFoundComponent </text>
</g>
<!-- SharedModule&#45;&gt;NotFoundComponent  -->
<g id="edge36" class="edge">
<title>SharedModule&#45;&gt;NotFoundComponent </title>
<path fill="none" stroke="#000000" stroke-dasharray="5,2" d="M1867.3736,-194C2048.7844,-194 2668,-194 2668,-194 2668,-194 2668,-227.7333 2668,-227.7333"/>
<polygon fill="#000000" stroke="#000000" points="2664.5001,-227.7333 2668,-237.7333 2671.5001,-227.7333 2664.5001,-227.7333"/>
</g>
<!-- FilterLeaguesPipe  -->
<g id="node36" class="node">
<title>FilterLeaguesPipe </title>
<polygon fill="#fb8072" stroke="#000000" points="2579.8589,-274 2458.1411,-274 2458.1411,-238 2579.8589,-238 2579.8589,-274"/>
<text text-anchor="middle" x="2519" y="-251.8" font-family="Times,serif" font-size="14.00" fill="#000000">FilterLeaguesPipe </text>
</g>
<!-- SharedModule&#45;&gt;FilterLeaguesPipe  -->
<g id="edge37" class="edge">
<title>SharedModule&#45;&gt;FilterLeaguesPipe </title>
<path fill="none" stroke="#000000" stroke-dasharray="5,2" d="M1867.293,-196C2026.8554,-196 2519,-196 2519,-196 2519,-196 2519,-227.998 2519,-227.998"/>
<polygon fill="#000000" stroke="#000000" points="2515.5001,-227.998 2519,-237.998 2522.5001,-227.9981 2515.5001,-227.998"/>
</g>
<!-- SortPlayersByNumberPipe  -->
<g id="node37" class="node">
<title>SortPlayersByNumberPipe </title>
<polygon fill="#fb8072" stroke="#000000" points="3727.6383,-274 3556.3617,-274 3556.3617,-238 3727.6383,-238 3727.6383,-274"/>
<text text-anchor="middle" x="3642" y="-251.8" font-family="Times,serif" font-size="14.00" fill="#000000">SortPlayersByNumberPipe </text>
</g>
<!-- SharedModule&#45;&gt;SortPlayersByNumberPipe  -->
<g id="edge38" class="edge">
<title>SharedModule&#45;&gt;SortPlayersByNumberPipe </title>
<path fill="none" stroke="#000000" stroke-dasharray="5,2" d="M1867.2595,-182C2158.4618,-182 3642,-182 3642,-182 3642,-182 3642,-227.7079 3642,-227.7079"/>
<polygon fill="#000000" stroke="#000000" points="3638.5001,-227.7078 3642,-237.7079 3645.5001,-227.7079 3638.5001,-227.7078"/>
</g>
<!-- HoverTableRowDirective  -->
<g id="node38" class="node">
<title>HoverTableRowDirective </title>
<polygon fill="#fb8072" stroke="#000000" points="3538.3802,-274 3373.6198,-274 3373.6198,-238 3538.3802,-238 3538.3802,-274"/>
<text text-anchor="middle" x="3456" y="-251.8" font-family="Times,serif" font-size="14.00" fill="#000000">HoverTableRowDirective </text>
</g>
<!-- SharedModule&#45;&gt;HoverTableRowDirective  -->
<g id="edge39" class="edge">
<title>SharedModule&#45;&gt;HoverTableRowDirective </title>
<path fill="none" stroke="#000000" stroke-dasharray="5,2" d="M1867.4683,-184C2140.9989,-184 3456,-184 3456,-184 3456,-184 3456,-227.8314 3456,-227.8314"/>
<polygon fill="#000000" stroke="#000000" points="3452.5001,-227.8313 3456,-237.8314 3459.5001,-227.8314 3452.5001,-227.8313"/>
</g>
<!-- StyleTableTitlesDirective  -->
<g id="node39" class="node">
<title>StyleTableTitlesDirective </title>
<polygon fill="#fb8072" stroke="#000000" points="3356.1172,-274 3191.8828,-274 3191.8828,-238 3356.1172,-238 3356.1172,-274"/>
<text text-anchor="middle" x="3274" y="-251.8" font-family="Times,serif" font-size="14.00" fill="#000000">StyleTableTitlesDirective </text>
</g>
<!-- SharedModule&#45;&gt;StyleTableTitlesDirective  -->
<g id="edge40" class="edge">
<title>SharedModule&#45;&gt;StyleTableTitlesDirective </title>
<path fill="none" stroke="#000000" stroke-dasharray="5,2" d="M1867.278,-186C2121.6134,-186 3274,-186 3274,-186 3274,-186 3274,-227.9733 3274,-227.9733"/>
<polygon fill="#000000" stroke="#000000" points="3270.5001,-227.9732 3274,-237.9733 3277.5001,-227.9733 3270.5001,-227.9732"/>
</g>
<!-- CoreModule -->
<g id="node9" class="node">
<title>CoreModule</title>
<polygon fill="#8dd3c7" stroke="#000000" points="1750.2619,-198 1747.2619,-202 1726.2619,-202 1723.2619,-198 1663.7381,-198 1663.7381,-162 1750.2619,-162 1750.2619,-198"/>
<text text-anchor="middle" x="1707" y="-175.8" font-family="Times,serif" font-size="14.00" fill="#000000">CoreModule</text>
</g>
<!-- CoreModule&#45;&gt;AppModule -->
<g id="edge8" class="edge">
<title>CoreModule&#45;&gt;AppModule</title>
<path fill="none" stroke="#000000" d="M1707,-198.2819C1707,-213.9478 1707,-234 1707,-234 1707,-234 1809.6344,-234 1809.6344,-234 1809.6344,-234 1809.6344,-292.9735 1809.6344,-292.9735"/>
<polygon fill="#000000" stroke="#000000" points="1806.1345,-292.9735 1809.6344,-302.9735 1813.1345,-292.9736 1806.1345,-292.9735"/>
</g>
<!-- CompetitionsModule&#45;&gt;AppModule -->
<g id="edge9" class="edge">
<title>CompetitionsModule&#45;&gt;AppModule</title>
<path fill="none" stroke="#000000" d="M1757.7775,-265C1777.0439,-265 1792.9031,-265 1792.9031,-265 1792.9031,-265 1792.9031,-292.973 1792.9031,-292.973"/>
<polygon fill="#000000" stroke="#000000" points="1789.4032,-292.973 1792.9031,-302.973 1796.4032,-292.973 1789.4032,-292.973"/>
</g>
<!-- LoginComponent -->
<g id="node12" class="node">
<title>LoginComponent</title>
<polygon fill="#ffffb3" stroke="#000000" points="284.2758,-198 169.7242,-198 169.7242,-162 284.2758,-162 284.2758,-198"/>
<text text-anchor="middle" x="227" y="-175.8" font-family="Times,serif" font-size="14.00" fill="#000000">LoginComponent</text>
</g>
<!-- LoginComponent&#45;&gt;AuthModule -->
<g id="edge11" class="edge">
<title>LoginComponent&#45;&gt;AuthModule</title>
<path fill="none" stroke="#000000" d="M227,-198.0267C227,-218.7672 227,-250 227,-250 227,-250 1507.3739,-250 1507.3739,-250"/>
<polygon fill="#000000" stroke="#000000" points="1507.3739,-253.5001 1517.3739,-250 1507.3738,-246.5001 1507.3739,-253.5001"/>
</g>
<!-- RegisterComponent -->
<g id="node13" class="node">
<title>RegisterComponent</title>
<polygon fill="#ffffb3" stroke="#000000" points="151.9846,-198 24.0154,-198 24.0154,-162 151.9846,-162 151.9846,-198"/>
<text text-anchor="middle" x="88" y="-175.8" font-family="Times,serif" font-size="14.00" fill="#000000">RegisterComponent</text>
</g>
<!-- RegisterComponent&#45;&gt;AuthModule -->
<g id="edge12" class="edge">
<title>RegisterComponent&#45;&gt;AuthModule</title>
<path fill="none" stroke="#000000" d="M88,-198.1985C88,-222.3563 88,-262 88,-262 88,-262 1507.3157,-262 1507.3157,-262"/>
<polygon fill="#000000" stroke="#000000" points="1507.3157,-265.5001 1517.3157,-262 1507.3156,-258.5001 1507.3157,-265.5001"/>
</g>
<!-- CompetitionComponent -->
<g id="node14" class="node">
<title>CompetitionComponent</title>
<polygon fill="#ffffb3" stroke="#000000" points="1476.837,-198 1325.163,-198 1325.163,-162 1476.837,-162 1476.837,-198"/>
<text text-anchor="middle" x="1401" y="-175.8" font-family="Times,serif" font-size="14.00" fill="#000000">CompetitionComponent</text>
</g>
<!-- CompetitionComponent&#45;&gt;CompetitionsModule -->
<g id="edge14" class="edge">
<title>CompetitionComponent&#45;&gt;CompetitionsModule</title>
<path fill="none" stroke="#000000" d="M1401,-198.1679C1401,-200.4478 1401,-202 1401,-202 1401,-202 1642.5263,-202 1642.5263,-202 1642.5263,-202 1642.5263,-227.7181 1642.5263,-227.7181"/>
<polygon fill="#000000" stroke="#000000" points="1639.0264,-227.718 1642.5263,-237.7181 1646.0264,-227.7181 1639.0264,-227.718"/>
</g>
<!-- PlayersComponent -->
<g id="node15" class="node">
<title>PlayersComponent</title>
<polygon fill="#ffffb3" stroke="#000000" points="1307.0409,-198 1184.9591,-198 1184.9591,-162 1307.0409,-162 1307.0409,-198"/>
<text text-anchor="middle" x="1246" y="-175.8" font-family="Times,serif" font-size="14.00" fill="#000000">PlayersComponent</text>
</g>
<!-- PlayersComponent&#45;&gt;CompetitionsModule -->
<g id="edge15" class="edge">
<title>PlayersComponent&#45;&gt;CompetitionsModule</title>
<path fill="none" stroke="#000000" d="M1246,-198.0579C1246,-202.4945 1246,-206 1246,-206 1246,-206 1639.6655,-206 1639.6655,-206 1639.6655,-206 1639.6655,-227.9489 1639.6655,-227.9489"/>
<polygon fill="#000000" stroke="#000000" points="1636.1656,-227.9488 1639.6655,-237.9489 1643.1656,-227.9489 1636.1656,-227.9488"/>
</g>
<!-- TablesComponent -->
<g id="node16" class="node">
<title>TablesComponent</title>
<polygon fill="#ffffb3" stroke="#000000" points="1166.1499,-198 1047.8501,-198 1047.8501,-162 1166.1499,-162 1166.1499,-198"/>
<text text-anchor="middle" x="1107" y="-175.8" font-family="Times,serif" font-size="14.00" fill="#000000">TablesComponent</text>
</g>
<!-- TablesComponent&#45;&gt;CompetitionsModule -->
<g id="edge16" class="edge">
<title>TablesComponent&#45;&gt;CompetitionsModule</title>
<path fill="none" stroke="#000000" d="M1107,-198.1432C1107,-204.4611 1107,-210 1107,-210 1107,-210 1636.8047,-210 1636.8047,-210 1636.8047,-210 1636.8047,-227.8196 1636.8047,-227.8196"/>
<polygon fill="#000000" stroke="#000000" points="1633.3048,-227.8195 1636.8047,-237.8196 1640.3048,-227.8196 1633.3048,-227.8195"/>
</g>
<!-- CompetitionsRoutingModule -->
<g id="node17" class="node">
<title>CompetitionsRoutingModule</title>
<polygon fill="#8dd3c7" stroke="#000000" points="1024.1164,-198 1021.1164,-202 1000.1164,-202 997.1164,-198 843.8836,-198 843.8836,-162 1024.1164,-162 1024.1164,-198"/>
<text text-anchor="middle" x="934" y="-175.8" font-family="Times,serif" font-size="14.00" fill="#000000">CompetitionsRoutingModule</text>
</g>
<!-- CompetitionsRoutingModule&#45;&gt;CompetitionsModule -->
<g id="edge17" class="edge">
<title>CompetitionsRoutingModule&#45;&gt;CompetitionsModule</title>
<path fill="none" stroke="#000000" d="M934,-198.1944C934,-206.2782 934,-214 934,-214 934,-214 1633.9439,-214 1633.9439,-214 1633.9439,-214 1633.9439,-227.9445 1633.9439,-227.9445"/>
<polygon fill="#000000" stroke="#000000" points="1630.444,-227.9444 1633.9439,-237.9445 1637.444,-227.9445 1630.444,-227.9444"/>
</g>
<!-- CompetitionsService -->
<g id="node18" class="node">
<title>CompetitionsService</title>
<ellipse fill="#fdb462" stroke="#000000" cx="728" cy="-180" rx="92.0702" ry="18"/>
<text text-anchor="middle" x="728" y="-175.8" font-family="Times,serif" font-size="14.00" fill="#000000">CompetitionsService</text>
</g>
<!-- CompetitionsService&#45;&gt;CompetitionsModule -->
<g id="edge19" class="edge">
<title>CompetitionsService&#45;&gt;CompetitionsModule</title>
<path fill="none" stroke="#000000" d="M728,-198.1097C728,-207.897 728,-218 728,-218 728,-218 1631.0831,-218 1631.0831,-218 1631.0831,-218 1631.0831,-227.8903 1631.0831,-227.8903"/>
<polygon fill="#000000" stroke="#000000" points="1627.5832,-227.8903 1631.0831,-237.8903 1634.5832,-227.8904 1627.5832,-227.8903"/>
</g>
<!-- TablesService -->
<g id="node19" class="node">
<title>TablesService</title>
<ellipse fill="#fdb462" stroke="#000000" cx="552" cy="-180" rx="65.9658" ry="18"/>
<text text-anchor="middle" x="552" y="-175.8" font-family="Times,serif" font-size="14.00" fill="#000000">TablesService</text>
</g>
<!-- TablesService&#45;&gt;CompetitionsModule -->
<g id="edge20" class="edge">
<title>TablesService&#45;&gt;CompetitionsModule</title>
<path fill="none" stroke="#000000" d="M552,-198.0555C552,-209.439 552,-222 552,-222 552,-222 1628.2223,-222 1628.2223,-222 1628.2223,-222 1628.2223,-227.8056 1628.2223,-227.8056"/>
<polygon fill="#000000" stroke="#000000" points="1624.7224,-227.8055 1628.2223,-237.8056 1631.7224,-227.8056 1624.7224,-227.8055"/>
</g>
<!-- PlayersServices -->
<g id="node20" class="node">
<title>PlayersServices</title>
<ellipse fill="#fdb462" stroke="#000000" cx="396" cy="-180" rx="72.3439" ry="18"/>
<text text-anchor="middle" x="396" y="-175.8" font-family="Times,serif" font-size="14.00" fill="#000000">PlayersServices</text>
</g>
<!-- PlayersServices&#45;&gt;CompetitionsModule -->
<g id="edge21" class="edge">
<title>PlayersServices&#45;&gt;CompetitionsModule</title>
<path fill="none" stroke="#000000" d="M396,-198.1804C396,-211.0382 396,-226 396,-226 396,-226 1625.3615,-226 1625.3615,-226 1625.3615,-226 1625.3615,-227.8568 1625.3615,-227.8568"/>
<polygon fill="#000000" stroke="#000000" points="1621.8616,-227.8568 1625.3615,-237.8568 1628.8616,-227.8568 1621.8616,-227.8568"/>
</g>
<!-- AuthService -->
<g id="node21" class="node">
<title>AuthService</title>
<ellipse fill="#fdb462" stroke="#000000" cx="1839" cy="-104" rx="59.1083" ry="18"/>
<text text-anchor="middle" x="1839" y="-99.8" font-family="Times,serif" font-size="14.00" fill="#000000">AuthService</text>
</g>
<!-- AuthService&#45;&gt;CoreModule -->
<g id="edge22" class="edge">
<title>AuthService&#45;&gt;CoreModule</title>
<path fill="none" stroke="#000000" d="M1823.4536,-121.665C1823.4536,-131.5885 1823.4536,-142 1823.4536,-142 1823.4536,-142 1721.4603,-142 1721.4603,-142 1721.4603,-142 1721.4603,-151.8903 1721.4603,-151.8903"/>
<polygon fill="#000000" stroke="#000000" points="1717.9604,-151.8903 1721.4603,-161.8903 1724.9604,-151.8904 1717.9604,-151.8903"/>
</g>
<!-- AuthGuard -->
<g id="node22" class="node">
<title>AuthGuard</title>
<ellipse fill="#fdb462" stroke="#000000" cx="1707" cy="-104" rx="54.4566" ry="18"/>
<text text-anchor="middle" x="1707" y="-99.8" font-family="Times,serif" font-size="14.00" fill="#000000">AuthGuard</text>
</g>
<!-- AuthGuard&#45;&gt;CoreModule -->
<g id="edge23" class="edge">
<title>AuthGuard&#45;&gt;CoreModule</title>
<path fill="none" stroke="#000000" d="M1692.5397,-121.627C1692.5397,-121.627 1692.5397,-151.9409 1692.5397,-151.9409"/>
<polygon fill="#000000" stroke="#000000" points="1689.0398,-151.9408 1692.5397,-161.9409 1696.0398,-151.9409 1689.0398,-151.9408"/>
</g>
<!-- UnauthGuard -->
<g id="node23" class="node">
<title>UnauthGuard</title>
<ellipse fill="#fdb462" stroke="#000000" cx="1571" cy="-104" rx="63.6871" ry="18"/>
<text text-anchor="middle" x="1571" y="-99.8" font-family="Times,serif" font-size="14.00" fill="#000000">UnauthGuard</text>
</g>
<!-- UnauthGuard&#45;&gt;CoreModule -->
<g id="edge24" class="edge">
<title>UnauthGuard&#45;&gt;CoreModule</title>
<path fill="none" stroke="#000000" d="M1634.6564,-104C1643.1259,-104 1648.9544,-104 1648.9544,-104 1648.9544,-104 1648.9544,-180 1648.9544,-180 1648.9544,-180 1653.6018,-180 1653.6018,-180"/>
<polygon fill="#000000" stroke="#000000" points="1653.6018,-183.5001 1663.6018,-180 1653.6017,-176.5001 1653.6018,-183.5001"/>
</g>
<!-- LoaderComponent -->
<g id="node24" class="node">
<title>LoaderComponent</title>
<polygon fill="#ffffb3" stroke="#000000" points="4451.4748,-274 4330.5252,-274 4330.5252,-238 4451.4748,-238 4451.4748,-274"/>
<text text-anchor="middle" x="4391" y="-251.8" font-family="Times,serif" font-size="14.00" fill="#000000">LoaderComponent</text>
</g>
<!-- LoaderComponent&#45;&gt;SharedModule -->
<g id="edge25" class="edge">
<title>LoaderComponent&#45;&gt;SharedModule</title>
<path fill="none" stroke="#000000" d="M4391,-237.9737C4391,-213.0227 4391,-171 4391,-171 4391,-171 1877.3857,-171 1877.3857,-171"/>
<polygon fill="#000000" stroke="#000000" points="1877.3858,-167.5001 1867.3857,-171 1877.3857,-174.5001 1877.3858,-167.5001"/>
</g>
<!-- AuthNavComponent -->
<g id="node25" class="node">
<title>AuthNavComponent</title>
<polygon fill="#ffffb3" stroke="#000000" points="4312.1513,-274 4179.8487,-274 4179.8487,-238 4312.1513,-238 4312.1513,-274"/>
<text text-anchor="middle" x="4246" y="-251.8" font-family="Times,serif" font-size="14.00" fill="#000000">AuthNavComponent</text>
</g>
<!-- AuthNavComponent&#45;&gt;SharedModule -->
<g id="edge26" class="edge">
<title>AuthNavComponent&#45;&gt;SharedModule</title>
<path fill="none" stroke="#000000" d="M4246,-237.9902C4246,-213.5793 4246,-173 4246,-173 4246,-173 1877.3243,-173 1877.3243,-173"/>
<polygon fill="#000000" stroke="#000000" points="1877.3244,-169.5001 1867.3243,-173 1877.3243,-176.5001 1877.3244,-169.5001"/>
</g>
<!-- FooterComponent -->
<g id="node26" class="node">
<title>FooterComponent</title>
<polygon fill="#ffffb3" stroke="#000000" points="4161.8809,-274 4044.1191,-274 4044.1191,-238 4161.8809,-238 4161.8809,-274"/>
<text text-anchor="middle" x="4103" y="-251.8" font-family="Times,serif" font-size="14.00" fill="#000000">FooterComponent</text>
</g>
<!-- FooterComponent&#45;&gt;SharedModule -->
<g id="edge27" class="edge">
<title>FooterComponent&#45;&gt;SharedModule</title>
<path fill="none" stroke="#000000" d="M4103,-237.6198C4103,-213.7215 4103,-175 4103,-175 4103,-175 1877.3152,-175 1877.3152,-175"/>
<polygon fill="#000000" stroke="#000000" points="1877.3152,-171.5001 1867.3152,-175 1877.3152,-178.5001 1877.3152,-171.5001"/>
</g>
<!-- NotFoundComponent -->
<g id="node27" class="node">
<title>NotFoundComponent</title>
<polygon fill="#ffffb3" stroke="#000000" points="4026.1122,-274 3887.8878,-274 3887.8878,-238 4026.1122,-238 4026.1122,-274"/>
<text text-anchor="middle" x="3957" y="-251.8" font-family="Times,serif" font-size="14.00" fill="#000000">NotFoundComponent</text>
</g>
<!-- NotFoundComponent&#45;&gt;SharedModule -->
<g id="edge28" class="edge">
<title>NotFoundComponent&#45;&gt;SharedModule</title>
<path fill="none" stroke="#000000" d="M3957,-237.6772C3957,-214.3398 3957,-177 3957,-177 3957,-177 1877.4664,-177 1877.4664,-177"/>
<polygon fill="#000000" stroke="#000000" points="1877.4664,-173.5001 1867.4664,-177 1877.4664,-180.5001 1877.4664,-173.5001"/>
</g>
<!-- FilterLeaguesPipe -->
<g id="node28" class="node">
<title>FilterLeaguesPipe</title>
<polygon fill="#ffffb3" stroke="#000000" points="3869.8585,-274 3752.1415,-274 3752.1415,-238 3869.8585,-238 3869.8585,-274"/>
<text text-anchor="middle" x="3811" y="-251.8" font-family="Times,serif" font-size="14.00" fill="#000000">FilterLeaguesPipe</text>
</g>
<!-- FilterLeaguesPipe&#45;&gt;SharedModule -->
<g id="edge29" class="edge">
<title>FilterLeaguesPipe&#45;&gt;SharedModule</title>
<path fill="none" stroke="#000000" d="M3811,-237.7521C3811,-214.9821 3811,-179 3811,-179 3811,-179 1877.2654,-179 1877.2654,-179"/>
<polygon fill="#000000" stroke="#000000" points="1877.2655,-175.5001 1867.2654,-179 1877.2654,-182.5001 1877.2655,-175.5001"/>
</g>
<!-- SortPlayersByNumberPipe -->
<g id="node29" class="node">
<title>SortPlayersByNumberPipe</title>
<polygon fill="#ffffb3" stroke="#000000" points="4995.6386,-274 4828.3614,-274 4828.3614,-238 4995.6386,-238 4995.6386,-274"/>
<text text-anchor="middle" x="4912" y="-251.8" font-family="Times,serif" font-size="14.00" fill="#000000">SortPlayersByNumberPipe</text>
</g>
<!-- SortPlayersByNumberPipe&#45;&gt;SharedModule -->
<g id="edge30" class="edge">
<title>SortPlayersByNumberPipe&#45;&gt;SharedModule</title>
<path fill="none" stroke="#000000" d="M4912,-237.5848C4912,-210.9943 4912,-165 4912,-165 4912,-165 1877.2241,-165 1877.2241,-165"/>
<polygon fill="#000000" stroke="#000000" points="1877.2241,-161.5001 1867.2241,-165 1877.224,-168.5001 1877.2241,-161.5001"/>
</g>
<!-- HoverTableRowDirective -->
<g id="node30" class="node">
<title>HoverTableRowDirective</title>
<polygon fill="#ffffb3" stroke="#000000" points="4809.8806,-274 4648.1194,-274 4648.1194,-238 4809.8806,-238 4809.8806,-274"/>
<text text-anchor="middle" x="4729" y="-251.8" font-family="Times,serif" font-size="14.00" fill="#000000">HoverTableRowDirective</text>
</g>
<!-- HoverTableRowDirective&#45;&gt;SharedModule -->
<g id="edge31" class="edge">
<title>HoverTableRowDirective&#45;&gt;SharedModule</title>
<path fill="none" stroke="#000000" d="M4729,-237.9895C4729,-211.9835 4729,-167 4729,-167 4729,-167 1877.3044,-167 1877.3044,-167"/>
<polygon fill="#000000" stroke="#000000" points="1877.3045,-163.5001 1867.3044,-167 1877.3044,-170.5001 1877.3045,-163.5001"/>
</g>
<!-- StyleTableTitlesDirective -->
<g id="node31" class="node">
<title>StyleTableTitlesDirective</title>
<polygon fill="#ffffb3" stroke="#000000" points="4630.1177,-274 4469.8823,-274 4469.8823,-238 4630.1177,-238 4630.1177,-274"/>
<text text-anchor="middle" x="4550" y="-251.8" font-family="Times,serif" font-size="14.00" fill="#000000">StyleTableTitlesDirective</text>
</g>
<!-- StyleTableTitlesDirective&#45;&gt;SharedModule -->
<g id="edge32" class="edge">
<title>StyleTableTitlesDirective&#45;&gt;SharedModule</title>
<path fill="none" stroke="#000000" d="M4550,-237.9735C4550,-212.4907 4550,-169 4550,-169 4550,-169 1877.4567,-169 1877.4567,-169"/>
<polygon fill="#000000" stroke="#000000" points="1877.4568,-165.5001 1867.4567,-169 1877.4567,-172.5001 1877.4568,-165.5001"/>
</g>
</g>
</svg>
