<?xml version="1.0" encoding="UTF-8" standalone="no"?>
<!DOCTYPE svg PUBLIC "-//W3C//DTD SVG 1.1//EN"
 "http://www.w3.org/Graphics/SVG/1.1/DTD/svg11.dtd">
<!-- Generated by graphviz version 2.40.1 (20161225.0304)
 -->
<!-- Title: dependencies Pages: 1 -->
<svg width="805pt" height="211pt"
 viewBox="0.00 0.00 805.00 211.00" xmlns="http://www.w3.org/2000/svg" xmlns:xlink="http://www.w3.org/1999/xlink">
<g id="graph0" class="graph" transform="scale(1 1) rotate(0) translate(4 207)">
<title>dependencies</title>
<polygon fill="#ffffff" stroke="transparent" points="-4,4 -4,-207 801,-207 801,4 -4,4"/>
<text text-anchor="start" x="377.5091" y="-42.4" font-family="sans-serif" font-weight="bold" font-size="14.00" fill="#000000">Legend</text>
<polygon fill="#ffffb3" stroke="transparent" points="164.5,-10 164.5,-30 184.5,-30 184.5,-10 164.5,-10"/>
<text text-anchor="start" x="188.129" y="-15.4" font-family="sans-serif" font-size="14.00" fill="#000000"> &#160;Declarations</text>
<polygon fill="#8dd3c7" stroke="transparent" points="277.5,-10 277.5,-30 297.5,-30 297.5,-10 277.5,-10"/>
<text text-anchor="start" x="301.2251" y="-15.4" font-family="sans-serif" font-size="14.00" fill="#000000"> &#160;Module</text>
<polygon fill="#80b1d3" stroke="transparent" points="363.5,-10 363.5,-30 383.5,-30 383.5,-10 363.5,-10"/>
<text text-anchor="start" x="387.2812" y="-15.4" font-family="sans-serif" font-size="14.00" fill="#000000"> &#160;Bootstrap</text>
<polygon fill="#fdb462" stroke="transparent" points="460.5,-10 460.5,-30 480.5,-30 480.5,-10 460.5,-10"/>
<text text-anchor="start" x="484.1732" y="-15.4" font-family="sans-serif" font-size="14.00" fill="#000000"> &#160;Providers</text>
<polygon fill="#fb8072" stroke="transparent" points="556.5,-10 556.5,-30 576.5,-30 576.5,-10 556.5,-10"/>
<text text-anchor="start" x="580.2258" y="-15.4" font-family="sans-serif" font-size="14.00" fill="#000000"> &#160;Exports</text>
<g id="clust1" class="cluster">
<title>cluster_CompetitionsModule</title>
<polygon fill="none" stroke="#000000" stroke-dasharray="1,5" points="8,-70 8,-195 789,-195 789,-70 8,-70"/>
</g>
<g id="clust2" class="cluster">
<title>cluster_CompetitionsModule_declarations</title>
<polygon fill="none" stroke="#000000" points="336,-78 336,-130 781,-130 781,-78 336,-78"/>
</g>
<g id="clust6" class="cluster">
<title>cluster_CompetitionsModule_imports</title>
<polygon fill="none" stroke="#000000" points="16,-78 16,-130 328,-130 328,-78 16,-78"/>
</g>
<!-- CompetitionComponent -->
<g id="node1" class="node">
<title>CompetitionComponent</title>
<polygon fill="#ffffb3" stroke="#000000" points="772.837,-122 621.163,-122 621.163,-86 772.837,-86 772.837,-122"/>
<text text-anchor="middle" x="697" y="-99.8" font-family="Times,serif" font-size="14.00" fill="#000000">CompetitionComponent</text>
</g>
<!-- CompetitionsModule -->
<g id="node4" class="node">
<title>CompetitionsModule</title>
<polygon fill="#8dd3c7" stroke="#000000" points="470.4986,-187 467.4986,-191 446.4986,-191 443.4986,-187 335.5014,-187 335.5014,-151 470.4986,-151 470.4986,-187"/>
<text text-anchor="middle" x="403" y="-164.8" font-family="Times,serif" font-size="14.00" fill="#000000">CompetitionsModule</text>
</g>
<!-- CompetitionComponent&#45;&gt;CompetitionsModule -->
<g id="edge1" class="edge">
<title>CompetitionComponent&#45;&gt;CompetitionsModule</title>
<path fill="none" stroke="#000000" d="M697,-122.1061C697,-141.3391 697,-169 697,-169 697,-169 480.8187,-169 480.8187,-169"/>
<polygon fill="#000000" stroke="#000000" points="480.8187,-165.5001 470.8187,-169 480.8187,-172.5001 480.8187,-165.5001"/>
</g>
<!-- PlayersComponent -->
<g id="node2" class="node">
<title>PlayersComponent</title>
<polygon fill="#ffffb3" stroke="#000000" points="603.0409,-122 480.9591,-122 480.9591,-86 603.0409,-86 603.0409,-122"/>
<text text-anchor="middle" x="542" y="-99.8" font-family="Times,serif" font-size="14.00" fill="#000000">PlayersComponent</text>
</g>
<!-- PlayersComponent&#45;&gt;CompetitionsModule -->
<g id="edge2" class="edge">
<title>PlayersComponent&#45;&gt;CompetitionsModule</title>
<path fill="none" stroke="#000000" d="M480.6295,-104C472.2262,-104 466.412,-104 466.412,-104 466.412,-104 466.412,-140.8939 466.412,-140.8939"/>
<polygon fill="#000000" stroke="#000000" points="462.9121,-140.8938 466.412,-150.8939 469.9121,-140.8939 462.9121,-140.8938"/>
</g>
<!-- TablesComponent -->
<g id="node3" class="node">
<title>TablesComponent</title>
<polygon fill="#ffffb3" stroke="#000000" points="462.1499,-122 343.8501,-122 343.8501,-86 462.1499,-86 462.1499,-122"/>
<text text-anchor="middle" x="403" y="-99.8" font-family="Times,serif" font-size="14.00" fill="#000000">TablesComponent</text>
</g>
<!-- TablesComponent&#45;&gt;CompetitionsModule -->
<g id="edge3" class="edge">
<title>TablesComponent&#45;&gt;CompetitionsModule</title>
<path fill="none" stroke="#000000" d="M403,-122.1061C403,-122.1061 403,-140.991 403,-140.991"/>
<polygon fill="#000000" stroke="#000000" points="399.5001,-140.9909 403,-150.991 406.5001,-140.991 399.5001,-140.9909"/>
</g>
<!-- CompetitionsRoutingModule -->
<g id="node5" class="node">
<title>CompetitionsRoutingModule</title>
<polygon fill="#8dd3c7" stroke="#000000" points="320.1164,-122 317.1164,-126 296.1164,-126 293.1164,-122 139.8836,-122 139.8836,-86 320.1164,-86 320.1164,-122"/>
<text text-anchor="middle" x="230" y="-99.8" font-family="Times,serif" font-size="14.00" fill="#000000">CompetitionsRoutingModule</text>
</g>
<!-- CompetitionsRoutingModule&#45;&gt;CompetitionsModule -->
<g id="edge4" class="edge">
<title>CompetitionsRoutingModule&#45;&gt;CompetitionsModule</title>
<path fill="none" stroke="#000000" d="M320.2481,-104C331.7417,-104 339.588,-104 339.588,-104 339.588,-104 339.588,-140.8939 339.588,-140.8939"/>
<polygon fill="#000000" stroke="#000000" points="336.0881,-140.8938 339.588,-150.8939 343.0881,-140.8939 336.0881,-140.8938"/>
</g>
<!-- SharedModule -->
<g id="node6" class="node">
<title>SharedModule</title>
<polygon fill="#8dd3c7" stroke="#000000" points="122.4231,-122 119.4231,-126 98.4231,-126 95.4231,-122 23.5769,-122 23.5769,-86 122.4231,-86 122.4231,-122"/>
<text text-anchor="middle" x="73" y="-99.8" font-family="Times,serif" font-size="14.00" fill="#000000">SharedModule</text>
</g>
<!-- SharedModule&#45;&gt;CompetitionsModule -->
<g id="edge5" class="edge">
<title>SharedModule&#45;&gt;CompetitionsModule</title>
<path fill="none" stroke="#000000" d="M73,-122.1061C73,-141.3391 73,-169 73,-169 73,-169 325.4233,-169 325.4233,-169"/>
<polygon fill="#000000" stroke="#000000" points="325.4233,-172.5001 335.4233,-169 325.4232,-165.5001 325.4233,-172.5001"/>
</g>
</g>
</svg>
