<?xml version="1.0" encoding="UTF-8" standalone="no"?>
<!DOCTYPE svg PUBLIC "-//W3C//DTD SVG 1.1//EN"
 "http://www.w3.org/Graphics/SVG/1.1/DTD/svg11.dtd">
<!-- Generated by graphviz version 2.40.1 (20161225.0304)
 -->
<!-- Title: dependencies Pages: 1 -->
<svg width="2438pt" height="436pt"
 viewBox="0.00 0.00 2438.00 436.00" xmlns="http://www.w3.org/2000/svg" xmlns:xlink="http://www.w3.org/1999/xlink">
<g id="graph0" class="graph" transform="scale(1 1) rotate(0) translate(4 432)">
<title>dependencies</title>
<polygon fill="#ffffff" stroke="transparent" points="-4,4 -4,-432 2434,-432 2434,4 -4,4"/>
<text text-anchor="start" x="1194.0091" y="-42.4" font-family="sans-serif" font-weight="bold" font-size="14.00" fill="#000000">Legend</text>
<polygon fill="#ffffb3" stroke="transparent" points="981,-10 981,-30 1001,-30 1001,-10 981,-10"/>
<text text-anchor="start" x="1004.629" y="-15.4" font-family="sans-serif" font-size="14.00" fill="#000000"> &#160;Declarations</text>
<polygon fill="#8dd3c7" stroke="transparent" points="1094,-10 1094,-30 1114,-30 1114,-10 1094,-10"/>
<text text-anchor="start" x="1117.7251" y="-15.4" font-family="sans-serif" font-size="14.00" fill="#000000"> &#160;Module</text>
<polygon fill="#80b1d3" stroke="transparent" points="1180,-10 1180,-30 1200,-30 1200,-10 1180,-10"/>
<text text-anchor="start" x="1203.7812" y="-15.4" font-family="sans-serif" font-size="14.00" fill="#000000"> &#160;Bootstrap</text>
<polygon fill="#fdb462" stroke="transparent" points="1277,-10 1277,-30 1297,-30 1297,-10 1277,-10"/>
<text text-anchor="start" x="1300.6732" y="-15.4" font-family="sans-serif" font-size="14.00" fill="#000000"> &#160;Providers</text>
<polygon fill="#fb8072" stroke="transparent" points="1373,-10 1373,-30 1393,-30 1393,-10 1373,-10"/>
<text text-anchor="start" x="1396.7258" y="-15.4" font-family="sans-serif" font-size="14.00" fill="#000000"> &#160;Exports</text>
<g id="clust1" class="cluster">
<title>cluster_AppModule</title>
<polygon fill="none" stroke="#000000" stroke-dasharray="1,5" points="680,-146 680,-420 1810,-420 1810,-146 680,-146"/>
</g>
<g id="clust2" class="cluster">
<title>cluster_AppModule_declarations</title>
<polygon fill="none" stroke="#000000" points="1402,-230 1402,-282 1802,-282 1802,-230 1402,-230"/>
</g>
<g id="clust6" class="cluster">
<title>cluster_AppModule_imports</title>
<polygon fill="none" stroke="#000000" points="688,-154 688,-282 1394,-282 1394,-154 688,-154"/>
</g>
<g id="clust8" class="cluster">
<title>cluster_AppModule_bootstrap</title>
<polygon fill="none" stroke="#000000" points="1105,-360 1105,-412 1229,-412 1229,-360 1105,-360"/>
</g>
<g id="clust16" class="cluster">
<title>cluster_AuthModule</title>
<polygon fill="none" stroke="#000000" stroke-dasharray="1,5" points="169,-70 169,-138 913,-138 913,-70 169,-70"/>
</g>
<g id="clust17" class="cluster">
<title>cluster_AuthModule_declarations</title>
<polygon fill="none" stroke="#000000" points="337,-78 337,-130 763,-130 763,-78 337,-78"/>
</g>
<g id="clust22" class="cluster">
<title>cluster_AuthModule_exports</title>
<polygon fill="none" stroke="#000000" points="177,-78 177,-130 329,-130 329,-78 177,-78"/>
</g>
<g id="clust24" class="cluster">
<title>cluster_AuthModule_providers</title>
<polygon fill="none" stroke="#000000" points="771,-78 771,-130 905,-130 905,-78 771,-78"/>
</g>
<g id="clust25" class="cluster">
<title>cluster_CompetitionsModule</title>
<polygon fill="none" stroke="#000000" stroke-dasharray="1,5" points="8,-146 8,-214 672,-214 672,-146 8,-146"/>
</g>
<g id="clust26" class="cluster">
<title>cluster_CompetitionsModule_declarations</title>
<polygon fill="none" stroke="#000000" points="220,-154 220,-206 664,-206 664,-154 220,-154"/>
</g>
<g id="clust30" class="cluster">
<title>cluster_CompetitionsModule_imports</title>
<polygon fill="none" stroke="#000000" points="16,-154 16,-206 212,-206 212,-154 16,-154"/>
</g>
<g id="clust40" class="cluster">
<title>cluster_ContactModule</title>
<polygon fill="none" stroke="#000000" stroke-dasharray="1,5" points="921,-70 921,-138 1077,-138 1077,-70 921,-70"/>
</g>
<g id="clust41" class="cluster">
<title>cluster_ContactModule_declarations</title>
<polygon fill="none" stroke="#000000" points="929,-78 929,-130 1069,-130 1069,-78 929,-78"/>
</g>
<g id="clust47" class="cluster">
<title>cluster_CoreModule</title>
<polygon fill="none" stroke="#000000" stroke-dasharray="1,5" points="1085,-70 1085,-138 2054,-138 2054,-70 1085,-70"/>
</g>
<g id="clust52" class="cluster">
<title>cluster_CoreModule_providers</title>
<polygon fill="none" stroke="#000000" points="1093,-78 1093,-130 2046,-130 2046,-78 1093,-78"/>
</g>
<g id="clust53" class="cluster">
<title>cluster_FooterModule</title>
<polygon fill="none" stroke="#000000" stroke-dasharray="1,5" points="2126,-222 2126,-290 2422,-290 2422,-222 2126,-222"/>
</g>
<g id="clust54" class="cluster">
<title>cluster_FooterModule_declarations</title>
<polygon fill="none" stroke="#000000" points="2280,-230 2280,-282 2414,-282 2414,-230 2280,-230"/>
</g>
<g id="clust57" class="cluster">
<title>cluster_FooterModule_exports</title>
<polygon fill="none" stroke="#000000" points="2134,-230 2134,-282 2272,-282 2272,-230 2134,-230"/>
</g>
<g id="clust60" class="cluster">
<title>cluster_SharedModule</title>
<polygon fill="none" stroke="#000000" stroke-dasharray="1,5" points="1818,-222 1818,-290 2118,-290 2118,-222 1818,-222"/>
</g>
<g id="clust61" class="cluster">
<title>cluster_SharedModule_declarations</title>
<polygon fill="none" stroke="#000000" points="1974,-230 1974,-282 2110,-282 2110,-230 1974,-230"/>
</g>
<g id="clust64" class="cluster">
<title>cluster_SharedModule_exports</title>
<polygon fill="none" stroke="#000000" points="1826,-230 1826,-282 1966,-282 1966,-230 1826,-230"/>
</g>
<!-- AppComponent -->
<g id="node1" class="node">
<title>AppComponent</title>
<polygon fill="#ffffb3" stroke="#000000" points="1515.9399,-274 1410.0601,-274 1410.0601,-238 1515.9399,-238 1515.9399,-274"/>
<text text-anchor="middle" x="1463" y="-251.8" font-family="Times,serif" font-size="14.00" fill="#000000">AppComponent</text>
</g>
<!-- AppModule -->
<g id="node4" class="node">
<title>AppModule</title>
<polygon fill="#8dd3c7" stroke="#000000" points="1208.6571,-339 1205.6571,-343 1184.6571,-343 1181.6571,-339 1125.3429,-339 1125.3429,-303 1208.6571,-303 1208.6571,-339"/>
<text text-anchor="middle" x="1167" y="-316.8" font-family="Times,serif" font-size="14.00" fill="#000000">AppModule</text>
</g>
<!-- AppComponent&#45;&gt;AppModule -->
<g id="edge1" class="edge">
<title>AppComponent&#45;&gt;AppModule</title>
<path fill="none" stroke="#000000" d="M1410.1081,-265C1333.3278,-265 1200.0684,-265 1200.0684,-265 1200.0684,-265 1200.0684,-292.973 1200.0684,-292.973"/>
<polygon fill="#000000" stroke="#000000" points="1196.5685,-292.973 1200.0684,-302.973 1203.5685,-292.973 1196.5685,-292.973"/>
</g>
<!-- FixturesComponent -->
<g id="node2" class="node">
<title>FixturesComponent</title>
<polygon fill="#ffffb3" stroke="#000000" points="1793.7162,-274 1666.2838,-274 1666.2838,-238 1793.7162,-238 1793.7162,-274"/>
<text text-anchor="middle" x="1730" y="-251.8" font-family="Times,serif" font-size="14.00" fill="#000000">FixturesComponent</text>
</g>
<!-- FixturesComponent&#45;&gt;AppModule -->
<g id="edge2" class="edge">
<title>FixturesComponent&#45;&gt;AppModule</title>
<path fill="none" stroke="#000000" d="M1730,-274.2921C1730,-296.2057 1730,-330 1730,-330 1730,-330 1218.8565,-330 1218.8565,-330"/>
<polygon fill="#000000" stroke="#000000" points="1218.8566,-326.5001 1208.8565,-330 1218.8565,-333.5001 1218.8566,-326.5001"/>
</g>
<!-- HomeComponent -->
<g id="node3" class="node">
<title>HomeComponent</title>
<polygon fill="#ffffb3" stroke="#000000" points="1648.5451,-274 1533.4549,-274 1533.4549,-238 1648.5451,-238 1648.5451,-274"/>
<text text-anchor="middle" x="1591" y="-251.8" font-family="Times,serif" font-size="14.00" fill="#000000">HomeComponent</text>
</g>
<!-- HomeComponent&#45;&gt;AppModule -->
<g id="edge3" class="edge">
<title>HomeComponent&#45;&gt;AppModule</title>
<path fill="none" stroke="#000000" d="M1591,-274.1061C1591,-293.3391 1591,-321 1591,-321 1591,-321 1218.8151,-321 1218.8151,-321"/>
<polygon fill="#000000" stroke="#000000" points="1218.8152,-317.5001 1208.8151,-321 1218.8151,-324.5001 1218.8152,-317.5001"/>
</g>
<!-- AppComponent  -->
<g id="node12" class="node">
<title>AppComponent </title>
<polygon fill="#80b1d3" stroke="#000000" points="1221.439,-404 1112.561,-404 1112.561,-368 1221.439,-368 1221.439,-404"/>
<text text-anchor="middle" x="1167" y="-381.8" font-family="Times,serif" font-size="14.00" fill="#000000">AppComponent </text>
</g>
<!-- AppModule&#45;&gt;AppComponent  -->
<g id="edge11" class="edge">
<title>AppModule&#45;&gt;AppComponent </title>
<path fill="none" stroke="#000000" stroke-dasharray="1,5" d="M1167,-339.1061C1167,-339.1061 1167,-357.991 1167,-357.991"/>
<polygon fill="#000000" stroke="#000000" points="1163.5001,-357.9909 1167,-367.991 1170.5001,-357.991 1163.5001,-357.9909"/>
</g>
<!-- AppRoutingModule -->
<g id="node5" class="node">
<title>AppRoutingModule</title>
<polygon fill="#8dd3c7" stroke="#000000" points="824.2744,-198 821.2744,-202 800.2744,-202 797.2744,-198 695.7256,-198 695.7256,-162 824.2744,-162 824.2744,-198"/>
<text text-anchor="middle" x="760" y="-175.8" font-family="Times,serif" font-size="14.00" fill="#000000">AppRoutingModule</text>
</g>
<!-- AppRoutingModule&#45;&gt;AppModule -->
<g id="edge4" class="edge">
<title>AppRoutingModule&#45;&gt;AppModule</title>
<path fill="none" stroke="#000000" d="M824.4312,-180C831.5902,-180 836.3629,-180 836.3629,-180 836.3629,-180 836.3629,-330 836.3629,-330 836.3629,-330 1115.1246,-330 1115.1246,-330"/>
<polygon fill="#000000" stroke="#000000" points="1115.1246,-333.5001 1125.1246,-330 1115.1245,-326.5001 1115.1246,-333.5001"/>
</g>
<!-- AuthModule -->
<g id="node6" class="node">
<title>AuthModule</title>
<polygon fill="#8dd3c7" stroke="#000000" points="929.5482,-198 926.5482,-202 905.5482,-202 902.5482,-198 842.4518,-198 842.4518,-162 929.5482,-162 929.5482,-198"/>
<text text-anchor="middle" x="886" y="-175.8" font-family="Times,serif" font-size="14.00" fill="#000000">AuthModule</text>
</g>
<!-- AuthModule&#45;&gt;AppModule -->
<g id="edge5" class="edge">
<title>AuthModule&#45;&gt;AppModule</title>
<path fill="none" stroke="#000000" d="M886,-198.1446C886,-236.2265 886,-321 886,-321 886,-321 1115.2349,-321 1115.2349,-321"/>
<polygon fill="#000000" stroke="#000000" points="1115.2349,-324.5001 1125.2349,-321 1115.2348,-317.5001 1115.2349,-324.5001"/>
</g>
<!-- AuthNavComponent  -->
<g id="node16" class="node">
<title>AuthNavComponent </title>
<polygon fill="#fb8072" stroke="#000000" points="321.1509,-122 184.8491,-122 184.8491,-86 321.1509,-86 321.1509,-122"/>
<text text-anchor="middle" x="253" y="-99.8" font-family="Times,serif" font-size="14.00" fill="#000000">AuthNavComponent </text>
</g>
<!-- AuthModule&#45;&gt;AuthNavComponent  -->
<g id="edge15" class="edge">
<title>AuthModule&#45;&gt;AuthNavComponent </title>
<path fill="none" stroke="#000000" stroke-dasharray="5,2" d="M850.0947,-161.92C850.0947,-160.1536 850.0947,-159 850.0947,-159 850.0947,-159 274.4027,-159 274.4027,-159 274.4027,-159 274.4027,-132.0091 274.4027,-132.0091"/>
<polygon fill="#000000" stroke="#000000" points="277.9028,-132.009 274.4027,-122.0091 270.9028,-132.0091 277.9028,-132.009"/>
</g>
<!-- ContactModule -->
<g id="node7" class="node">
<title>ContactModule</title>
<polygon fill="#8dd3c7" stroke="#000000" points="1050.5968,-198 1047.5968,-202 1026.5968,-202 1023.5968,-198 947.4032,-198 947.4032,-162 1050.5968,-162 1050.5968,-198"/>
<text text-anchor="middle" x="999" y="-175.8" font-family="Times,serif" font-size="14.00" fill="#000000">ContactModule</text>
</g>
<!-- ContactModule&#45;&gt;AppModule -->
<g id="edge6" class="edge">
<title>ContactModule&#45;&gt;AppModule</title>
<path fill="none" stroke="#000000" d="M999,-198.0773C999,-234.2287 999,-312 999,-312 999,-312 1115.0399,-312 1115.0399,-312"/>
<polygon fill="#000000" stroke="#000000" points="1115.0399,-315.5001 1125.0399,-312 1115.0398,-308.5001 1115.0399,-315.5001"/>
</g>
<!-- SharedModule -->
<g id="node8" class="node">
<title>SharedModule</title>
<polygon fill="#8dd3c7" stroke="#000000" points="1272.4231,-198 1269.4231,-202 1248.4231,-202 1245.4231,-198 1173.5769,-198 1173.5769,-162 1272.4231,-162 1272.4231,-198"/>
<text text-anchor="middle" x="1223" y="-175.8" font-family="Times,serif" font-size="14.00" fill="#000000">SharedModule</text>
</g>
<!-- SharedModule&#45;&gt;AppModule -->
<g id="edge7" class="edge">
<title>SharedModule&#45;&gt;AppModule</title>
<path fill="none" stroke="#000000" d="M1191.3086,-198.1446C1191.3086,-198.1446 1191.3086,-292.925 1191.3086,-292.925"/>
<polygon fill="#000000" stroke="#000000" points="1187.8086,-292.925 1191.3086,-302.925 1194.8086,-292.925 1187.8086,-292.925"/>
</g>
<!-- CompetitionsModule -->
<g id="node11" class="node">
<title>CompetitionsModule</title>
<polygon fill="#8dd3c7" stroke="#000000" points="830.4986,-274 827.4986,-278 806.4986,-278 803.4986,-274 695.5014,-274 695.5014,-238 830.4986,-238 830.4986,-274"/>
<text text-anchor="middle" x="763" y="-251.8" font-family="Times,serif" font-size="14.00" fill="#000000">CompetitionsModule</text>
</g>
<!-- SharedModule&#45;&gt;CompetitionsModule -->
<g id="edge21" class="edge">
<title>SharedModule&#45;&gt;CompetitionsModule</title>
<path fill="none" stroke="#000000" d="M1182.5487,-198.308C1182.5487,-218.1455 1182.5487,-247 1182.5487,-247 1182.5487,-247 840.874,-247 840.874,-247"/>
<polygon fill="#000000" stroke="#000000" points="840.8741,-243.5001 830.874,-247 840.874,-250.5001 840.8741,-243.5001"/>
</g>
<!-- LoaderComponent  -->
<g id="node32" class="node">
<title>LoaderComponent </title>
<polygon fill="#fb8072" stroke="#000000" points="1958.4757,-274 1833.5243,-274 1833.5243,-238 1958.4757,-238 1958.4757,-274"/>
<text text-anchor="middle" x="1896" y="-251.8" font-family="Times,serif" font-size="14.00" fill="#000000">LoaderComponent </text>
</g>
<!-- SharedModule&#45;&gt;LoaderComponent  -->
<g id="edge33" class="edge">
<title>SharedModule&#45;&gt;LoaderComponent </title>
<path fill="none" stroke="#000000" stroke-dasharray="5,2" d="M1255.2972,-198.0439C1255.2972,-210.5633 1255.2972,-225 1255.2972,-225 1255.2972,-225 1845.181,-225 1845.181,-225 1845.181,-225 1845.181,-227.9672 1845.181,-227.9672"/>
<polygon fill="#000000" stroke="#000000" points="1841.6811,-227.9671 1845.181,-237.9672 1848.6811,-227.9672 1841.6811,-227.9671"/>
</g>
<!-- FooterModule -->
<g id="node9" class="node">
<title>FooterModule</title>
<polygon fill="#8dd3c7" stroke="#000000" points="1386.0983,-198 1383.0983,-202 1362.0983,-202 1359.0983,-198 1289.9017,-198 1289.9017,-162 1386.0983,-162 1386.0983,-198"/>
<text text-anchor="middle" x="1338" y="-175.8" font-family="Times,serif" font-size="14.00" fill="#000000">FooterModule</text>
</g>
<!-- FooterModule&#45;&gt;AppModule -->
<g id="edge8" class="edge">
<title>FooterModule&#45;&gt;AppModule</title>
<path fill="none" stroke="#000000" d="M1338,-198.0773C1338,-234.2287 1338,-312 1338,-312 1338,-312 1218.8313,-312 1218.8313,-312"/>
<polygon fill="#000000" stroke="#000000" points="1218.8313,-308.5001 1208.8313,-312 1218.8313,-315.5001 1218.8313,-308.5001"/>
</g>
<!-- FooterComponent  -->
<g id="node30" class="node">
<title>FooterComponent </title>
<polygon fill="#fb8072" stroke="#000000" points="2263.8814,-274 2142.1186,-274 2142.1186,-238 2263.8814,-238 2263.8814,-274"/>
<text text-anchor="middle" x="2203" y="-251.8" font-family="Times,serif" font-size="14.00" fill="#000000">FooterComponent </text>
</g>
<!-- FooterModule&#45;&gt;FooterComponent  -->
<g id="edge31" class="edge">
<title>FooterModule&#45;&gt;FooterComponent </title>
<path fill="none" stroke="#000000" stroke-dasharray="5,2" d="M1386.3596,-186C1568.5237,-186 2203,-186 2203,-186 2203,-186 2203,-227.9733 2203,-227.9733"/>
<polygon fill="#000000" stroke="#000000" points="2199.5001,-227.9732 2203,-237.9733 2206.5001,-227.9733 2199.5001,-227.9732"/>
</g>
<!-- CoreModule -->
<g id="node10" class="node">
<title>CoreModule</title>
<polygon fill="#8dd3c7" stroke="#000000" points="1155.2619,-198 1152.2619,-202 1131.2619,-202 1128.2619,-198 1068.7381,-198 1068.7381,-162 1155.2619,-162 1155.2619,-198"/>
<text text-anchor="middle" x="1112" y="-175.8" font-family="Times,serif" font-size="14.00" fill="#000000">CoreModule</text>
</g>
<!-- CoreModule&#45;&gt;AppModule -->
<g id="edge9" class="edge">
<title>CoreModule&#45;&gt;AppModule</title>
<path fill="none" stroke="#000000" d="M1145.3111,-198.1446C1145.3111,-198.1446 1145.3111,-292.925 1145.3111,-292.925"/>
<polygon fill="#000000" stroke="#000000" points="1141.8112,-292.925 1145.3111,-302.925 1148.8112,-292.925 1141.8112,-292.925"/>
</g>
<!-- CompetitionsModule&#45;&gt;AppModule -->
<g id="edge10" class="edge">
<title>CompetitionsModule&#45;&gt;AppModule</title>
<path fill="none" stroke="#000000" d="M830.842,-256C938.2092,-256 1135.2415,-256 1135.2415,-256 1135.2415,-256 1135.2415,-292.8939 1135.2415,-292.8939"/>
<polygon fill="#000000" stroke="#000000" points="1131.7416,-292.8938 1135.2415,-302.8939 1138.7416,-292.8939 1131.7416,-292.8938"/>
</g>
<!-- LoginComponent -->
<g id="node13" class="node">
<title>LoginComponent</title>
<polygon fill="#ffffb3" stroke="#000000" points="755.2758,-122 640.7242,-122 640.7242,-86 755.2758,-86 755.2758,-122"/>
<text text-anchor="middle" x="698" y="-99.8" font-family="Times,serif" font-size="14.00" fill="#000000">LoginComponent</text>
</g>
<!-- LoginComponent&#45;&gt;AuthModule -->
<g id="edge12" class="edge">
<title>LoginComponent&#45;&gt;AuthModule</title>
<path fill="none" stroke="#000000" d="M725.5004,-122.1505C725.5004,-134.2708 725.5004,-148 725.5004,-148 725.5004,-148 873.6993,-148 873.6993,-148 873.6993,-148 873.6993,-151.7566 873.6993,-151.7566"/>
<polygon fill="#000000" stroke="#000000" points="870.1994,-151.7566 873.6993,-161.7566 877.1994,-151.7566 870.1994,-151.7566"/>
</g>
<!-- RegisterComponent -->
<g id="node14" class="node">
<title>RegisterComponent</title>
<polygon fill="#ffffb3" stroke="#000000" points="622.9846,-122 495.0154,-122 495.0154,-86 622.9846,-86 622.9846,-122"/>
<text text-anchor="middle" x="559" y="-99.8" font-family="Times,serif" font-size="14.00" fill="#000000">RegisterComponent</text>
</g>
<!-- RegisterComponent&#45;&gt;AuthModule -->
<g id="edge13" class="edge">
<title>RegisterComponent&#45;&gt;AuthModule</title>
<path fill="none" stroke="#000000" d="M580.3338,-122.1467C580.3338,-135.7395 580.3338,-152 580.3338,-152 580.3338,-152 865.8311,-152 865.8311,-152 865.8311,-152 865.8311,-152.9793 865.8311,-152.9793"/>
<polygon fill="#000000" stroke="#000000" points="862.3312,-151.793 865.8311,-161.793 869.3312,-151.7931 862.3312,-151.793"/>
</g>
<!-- AuthNavComponent -->
<g id="node15" class="node">
<title>AuthNavComponent</title>
<polygon fill="#ffffb3" stroke="#000000" points="477.1513,-122 344.8487,-122 344.8487,-86 477.1513,-86 477.1513,-122"/>
<text text-anchor="middle" x="411" y="-99.8" font-family="Times,serif" font-size="14.00" fill="#000000">AuthNavComponent</text>
</g>
<!-- AuthNavComponent&#45;&gt;AuthModule -->
<g id="edge14" class="edge">
<title>AuthNavComponent&#45;&gt;AuthModule</title>
<path fill="none" stroke="#000000" d="M422.8286,-122.1243C422.8286,-136.7832 422.8286,-155 422.8286,-155 422.8286,-155 857.9629,-155 857.9629,-155 857.9629,-155 857.9629,-155.6831 857.9629,-155.6831"/>
<polygon fill="#000000" stroke="#000000" points="854.463,-151.8313 857.9629,-161.8314 861.463,-151.8314 854.463,-151.8313"/>
</g>
<!-- AuthService -->
<g id="node17" class="node">
<title>AuthService</title>
<ellipse fill="#fdb462" stroke="#000000" cx="838" cy="-104" rx="59.1083" ry="18"/>
<text text-anchor="middle" x="838" y="-99.8" font-family="Times,serif" font-size="14.00" fill="#000000">AuthService</text>
</g>
<!-- AuthService&#45;&gt;AuthModule -->
<g id="edge16" class="edge">
<title>AuthService&#45;&gt;AuthModule</title>
<path fill="none" stroke="#000000" d="M881.5675,-116.5499C881.5675,-116.5499 881.5675,-151.7417 881.5675,-151.7417"/>
<polygon fill="#000000" stroke="#000000" points="878.0676,-151.7417 881.5675,-161.7417 885.0676,-151.7418 878.0676,-151.7417"/>
</g>
<!-- AuthService&#45;&gt;CoreModule -->
<g id="edge23" class="edge">
<title>AuthService&#45;&gt;CoreModule</title>
<path fill="none" stroke="#000000" d="M889.4357,-113.2025C889.4357,-119.2311 889.4357,-126 889.4357,-126 889.4357,-126 1085.0129,-126 1085.0129,-126 1085.0129,-126 1085.0129,-151.7181 1085.0129,-151.7181"/>
<polygon fill="#000000" stroke="#000000" points="1081.513,-151.718 1085.0129,-161.7181 1088.513,-151.7181 1081.513,-151.718"/>
</g>
<!-- CompetitionComponent -->
<g id="node18" class="node">
<title>CompetitionComponent</title>
<polygon fill="#ffffb3" stroke="#000000" points="519.837,-198 368.163,-198 368.163,-162 519.837,-162 519.837,-198"/>
<text text-anchor="middle" x="444" y="-175.8" font-family="Times,serif" font-size="14.00" fill="#000000">CompetitionComponent</text>
</g>
<!-- CompetitionComponent&#45;&gt;CompetitionsModule -->
<g id="edge17" class="edge">
<title>CompetitionComponent&#45;&gt;CompetitionsModule</title>
<path fill="none" stroke="#000000" d="M444,-198.0449C444,-219.6623 444,-253 444,-253 444,-253 685.3483,-253 685.3483,-253"/>
<polygon fill="#000000" stroke="#000000" points="685.3483,-256.5001 695.3483,-253 685.3483,-249.5001 685.3483,-256.5001"/>
</g>
<!-- PlayersComponent -->
<g id="node19" class="node">
<title>PlayersComponent</title>
<polygon fill="#ffffb3" stroke="#000000" points="350.0409,-198 227.9591,-198 227.9591,-162 350.0409,-162 350.0409,-198"/>
<text text-anchor="middle" x="289" y="-175.8" font-family="Times,serif" font-size="14.00" fill="#000000">PlayersComponent</text>
</g>
<!-- PlayersComponent&#45;&gt;CompetitionsModule -->
<g id="edge18" class="edge">
<title>PlayersComponent&#45;&gt;CompetitionsModule</title>
<path fill="none" stroke="#000000" d="M289,-198.1532C289,-221.7566 289,-260 289,-260 289,-260 685.3392,-260 685.3392,-260"/>
<polygon fill="#000000" stroke="#000000" points="685.3393,-263.5001 695.3392,-260 685.3392,-256.5001 685.3393,-263.5001"/>
</g>
<!-- TablesComponent -->
<g id="node20" class="node">
<title>TablesComponent</title>
<polygon fill="#ffffb3" stroke="#000000" points="656.1499,-198 537.8501,-198 537.8501,-162 656.1499,-162 656.1499,-198"/>
<text text-anchor="middle" x="597" y="-175.8" font-family="Times,serif" font-size="14.00" fill="#000000">TablesComponent</text>
</g>
<!-- TablesComponent&#45;&gt;CompetitionsModule -->
<g id="edge19" class="edge">
<title>TablesComponent&#45;&gt;CompetitionsModule</title>
<path fill="none" stroke="#000000" d="M597,-198.0348C597,-217.5762 597,-246 597,-246 597,-246 685.4814,-246 685.4814,-246"/>
<polygon fill="#000000" stroke="#000000" points="685.4815,-249.5001 695.4814,-246 685.4814,-242.5001 685.4815,-249.5001"/>
</g>
<!-- CompetitionsRoutingModule -->
<g id="node21" class="node">
<title>CompetitionsRoutingModule</title>
<polygon fill="#8dd3c7" stroke="#000000" points="204.1164,-198 201.1164,-202 180.1164,-202 177.1164,-198 23.8836,-198 23.8836,-162 204.1164,-162 204.1164,-198"/>
<text text-anchor="middle" x="114" y="-175.8" font-family="Times,serif" font-size="14.00" fill="#000000">CompetitionsRoutingModule</text>
</g>
<!-- CompetitionsRoutingModule&#45;&gt;CompetitionsModule -->
<g id="edge20" class="edge">
<title>CompetitionsRoutingModule&#45;&gt;CompetitionsModule</title>
<path fill="none" stroke="#000000" d="M114,-198.0265C114,-223.5093 114,-267 114,-267 114,-267 685.3823,-267 685.3823,-267"/>
<polygon fill="#000000" stroke="#000000" points="685.3823,-270.5001 695.3823,-267 685.3822,-263.5001 685.3823,-270.5001"/>
</g>
<!-- ContactComponent -->
<g id="node22" class="node">
<title>ContactComponent</title>
<polygon fill="#ffffb3" stroke="#000000" points="1061.3795,-122 936.6205,-122 936.6205,-86 1061.3795,-86 1061.3795,-122"/>
<text text-anchor="middle" x="999" y="-99.8" font-family="Times,serif" font-size="14.00" fill="#000000">ContactComponent</text>
</g>
<!-- ContactComponent&#45;&gt;ContactModule -->
<g id="edge22" class="edge">
<title>ContactComponent&#45;&gt;ContactModule</title>
<path fill="none" stroke="#000000" d="M999,-122.0109C999,-122.0109 999,-151.855 999,-151.855"/>
<polygon fill="#000000" stroke="#000000" points="995.5001,-151.8549 999,-161.855 1002.5001,-151.855 995.5001,-151.8549"/>
</g>
<!-- CompetitionsService -->
<g id="node23" class="node">
<title>CompetitionsService</title>
<ellipse fill="#fdb462" stroke="#000000" cx="1946" cy="-104" rx="92.0702" ry="18"/>
<text text-anchor="middle" x="1946" y="-99.8" font-family="Times,serif" font-size="14.00" fill="#000000">CompetitionsService</text>
</g>
<!-- CompetitionsService&#45;&gt;CoreModule -->
<g id="edge24" class="edge">
<title>CompetitionsService&#45;&gt;CoreModule</title>
<path fill="none" stroke="#000000" d="M1906.1012,-120.2695C1906.1012,-131.3438 1906.1012,-144 1906.1012,-144 1906.1012,-144 1147.6702,-144 1147.6702,-144 1147.6702,-144 1147.6702,-151.5782 1147.6702,-151.5782"/>
<polygon fill="#000000" stroke="#000000" points="1144.1703,-151.5781 1147.6702,-161.5782 1151.1703,-151.5782 1144.1703,-151.5781"/>
</g>
<!-- FixturesServices -->
<g id="node24" class="node">
<title>FixturesServices</title>
<ellipse fill="#fdb462" stroke="#000000" cx="1761" cy="-104" rx="75.2944" ry="18"/>
<text text-anchor="middle" x="1761" y="-99.8" font-family="Times,serif" font-size="14.00" fill="#000000">FixturesServices</text>
</g>
<!-- FixturesServices&#45;&gt;CoreModule -->
<g id="edge25" class="edge">
<title>FixturesServices&#45;&gt;CoreModule</title>
<path fill="none" stroke="#000000" d="M1739.6054,-121.6331C1739.6054,-131.1628 1739.6054,-141 1739.6054,-141 1739.6054,-141 1139.9596,-141 1139.9596,-141 1139.9596,-141 1139.9596,-151.8701 1139.9596,-151.8701"/>
<polygon fill="#000000" stroke="#000000" points="1136.4597,-151.8701 1139.9596,-161.8701 1143.4597,-151.8701 1136.4597,-151.8701"/>
</g>
<!-- TablesService -->
<g id="node25" class="node">
<title>TablesService</title>
<ellipse fill="#fdb462" stroke="#000000" cx="1602" cy="-104" rx="65.9658" ry="18"/>
<text text-anchor="middle" x="1602" y="-99.8" font-family="Times,serif" font-size="14.00" fill="#000000">TablesService</text>
</g>
<!-- TablesService&#45;&gt;CoreModule -->
<g id="edge26" class="edge">
<title>TablesService&#45;&gt;CoreModule</title>
<path fill="none" stroke="#000000" d="M1592.5198,-122.0449C1592.5198,-129.749 1592.5198,-137 1592.5198,-137 1592.5198,-137 1132.249,-137 1132.249,-137 1132.249,-137 1132.249,-151.5146 1132.249,-151.5146"/>
<polygon fill="#000000" stroke="#000000" points="1128.7491,-151.5145 1132.249,-161.5146 1135.7491,-151.5146 1128.7491,-151.5145"/>
</g>
<!-- PlayersServices -->
<g id="node26" class="node">
<title>PlayersServices</title>
<ellipse fill="#fdb462" stroke="#000000" cx="1446" cy="-104" rx="72.3439" ry="18"/>
<text text-anchor="middle" x="1446" y="-99.8" font-family="Times,serif" font-size="14.00" fill="#000000">PlayersServices</text>
</g>
<!-- PlayersServices&#45;&gt;CoreModule -->
<g id="edge27" class="edge">
<title>PlayersServices&#45;&gt;CoreModule</title>
<path fill="none" stroke="#000000" d="M1379.9387,-111.3179C1379.9387,-119.9089 1379.9387,-133 1379.9387,-133 1379.9387,-133 1124.5384,-133 1124.5384,-133 1124.5384,-133 1124.5384,-151.963 1124.5384,-151.963"/>
<polygon fill="#000000" stroke="#000000" points="1121.0385,-151.963 1124.5384,-161.963 1128.0385,-151.963 1121.0385,-151.963"/>
</g>
<!-- AuthGuard -->
<g id="node27" class="node">
<title>AuthGuard</title>
<ellipse fill="#fdb462" stroke="#000000" cx="1301" cy="-104" rx="54.4566" ry="18"/>
<text text-anchor="middle" x="1301" y="-99.8" font-family="Times,serif" font-size="14.00" fill="#000000">AuthGuard</text>
</g>
<!-- AuthGuard&#45;&gt;CoreModule -->
<g id="edge28" class="edge">
<title>AuthGuard&#45;&gt;CoreModule</title>
<path fill="none" stroke="#000000" d="M1259.3664,-115.7828C1259.3664,-122.6621 1259.3664,-130 1259.3664,-130 1259.3664,-130 1116.8278,-130 1116.8278,-130 1116.8278,-130 1116.8278,-151.9489 1116.8278,-151.9489"/>
<polygon fill="#000000" stroke="#000000" points="1113.3279,-151.9488 1116.8278,-161.9489 1120.3279,-151.9489 1113.3279,-151.9488"/>
</g>
<!-- UnauthGuard -->
<g id="node28" class="node">
<title>UnauthGuard</title>
<ellipse fill="#fdb462" stroke="#000000" cx="1165" cy="-104" rx="63.6871" ry="18"/>
<text text-anchor="middle" x="1165" y="-99.8" font-family="Times,serif" font-size="14.00" fill="#000000">UnauthGuard</text>
</g>
<!-- UnauthGuard&#45;&gt;CoreModule -->
<g id="edge29" class="edge">
<title>UnauthGuard&#45;&gt;CoreModule</title>
<path fill="none" stroke="#000000" d="M1109.1171,-112.7182C1109.1171,-112.7182 1109.1171,-151.8836 1109.1171,-151.8836"/>
<polygon fill="#000000" stroke="#000000" points="1105.6172,-151.8836 1109.1171,-161.8836 1112.6172,-151.8837 1105.6172,-151.8836"/>
</g>
<!-- FooterComponent -->
<g id="node29" class="node">
<title>FooterComponent</title>
<polygon fill="#ffffb3" stroke="#000000" points="2405.8809,-274 2288.1191,-274 2288.1191,-238 2405.8809,-238 2405.8809,-274"/>
<text text-anchor="middle" x="2347" y="-251.8" font-family="Times,serif" font-size="14.00" fill="#000000">FooterComponent</text>
</g>
<!-- FooterComponent&#45;&gt;FooterModule -->
<g id="edge30" class="edge">
<title>FooterComponent&#45;&gt;FooterModule</title>
<path fill="none" stroke="#000000" d="M2347,-237.8015C2347,-213.6437 2347,-174 2347,-174 2347,-174 1396.3262,-174 1396.3262,-174"/>
<polygon fill="#000000" stroke="#000000" points="1396.3263,-170.5001 1386.3262,-174 1396.3262,-177.5001 1396.3263,-170.5001"/>
</g>
<!-- LoaderComponent -->
<g id="node31" class="node">
<title>LoaderComponent</title>
<polygon fill="#ffffb3" stroke="#000000" points="2102.4748,-274 1981.5252,-274 1981.5252,-238 2102.4748,-238 2102.4748,-274"/>
<text text-anchor="middle" x="2042" y="-251.8" font-family="Times,serif" font-size="14.00" fill="#000000">LoaderComponent</text>
</g>
<!-- LoaderComponent&#45;&gt;SharedModule -->
<g id="edge32" class="edge">
<title>LoaderComponent&#45;&gt;SharedModule</title>
<path fill="none" stroke="#000000" d="M2009.7738,-237.8495C2009.7738,-225.7292 2009.7738,-212 2009.7738,-212 2009.7738,-212 1238.3834,-212 1238.3834,-212 1238.3834,-212 1238.3834,-208.2434 1238.3834,-208.2434"/>
<polygon fill="#000000" stroke="#000000" points="1241.8835,-208.2434 1238.3834,-198.2434 1234.8835,-208.2434 1241.8835,-208.2434"/>
</g>
</g>
</svg>
