<?xml version="1.0" encoding="UTF-8" standalone="no"?>
<!DOCTYPE svg PUBLIC "-//W3C//DTD SVG 1.1//EN"
 "http://www.w3.org/Graphics/SVG/1.1/DTD/svg11.dtd">
<!-- Generated by graphviz version 2.40.1 (20161225.0304)
 -->
<!-- Title: dependencies Pages: 1 -->
<svg width="1306pt" height="284pt"
 viewBox="0.00 0.00 1306.00 284.00" xmlns="http://www.w3.org/2000/svg" xmlns:xlink="http://www.w3.org/1999/xlink">
<g id="graph0" class="graph" transform="scale(1 1) rotate(0) translate(4 280)">
<title>dependencies</title>
<polygon fill="#ffffff" stroke="transparent" points="-4,4 -4,-280 1302,-280 1302,4 -4,4"/>
<text text-anchor="start" x="628.0091" y="-42.4" font-family="sans-serif" font-weight="bold" font-size="14.00" fill="#000000">Legend</text>
<polygon fill="#ffffb3" stroke="transparent" points="415,-10 415,-30 435,-30 435,-10 415,-10"/>
<text text-anchor="start" x="438.629" y="-15.4" font-family="sans-serif" font-size="14.00" fill="#000000"> &#160;Declarations</text>
<polygon fill="#8dd3c7" stroke="transparent" points="528,-10 528,-30 548,-30 548,-10 528,-10"/>
<text text-anchor="start" x="551.7251" y="-15.4" font-family="sans-serif" font-size="14.00" fill="#000000"> &#160;Module</text>
<polygon fill="#80b1d3" stroke="transparent" points="614,-10 614,-30 634,-30 634,-10 614,-10"/>
<text text-anchor="start" x="637.7812" y="-15.4" font-family="sans-serif" font-size="14.00" fill="#000000"> &#160;Bootstrap</text>
<polygon fill="#fdb462" stroke="transparent" points="711,-10 711,-30 731,-30 731,-10 711,-10"/>
<text text-anchor="start" x="734.6732" y="-15.4" font-family="sans-serif" font-size="14.00" fill="#000000"> &#160;Providers</text>
<polygon fill="#fb8072" stroke="transparent" points="807,-10 807,-30 827,-30 827,-10 807,-10"/>
<text text-anchor="start" x="830.7258" y="-15.4" font-family="sans-serif" font-size="14.00" fill="#000000"> &#160;Exports</text>
<g id="clust1" class="cluster">
<title>cluster_AppModule</title>
<polygon fill="none" stroke="#000000" stroke-dasharray="1,5" points="8,-70 8,-268 1290,-268 1290,-70 8,-70"/>
</g>
<g id="clust2" class="cluster">
<title>cluster_AppModule_declarations</title>
<polygon fill="none" stroke="#000000" points="882,-78 882,-130 1282,-130 1282,-78 882,-78"/>
</g>
<g id="clust6" class="cluster">
<title>cluster_AppModule_imports</title>
<polygon fill="none" stroke="#000000" points="16,-78 16,-130 874,-130 874,-78 16,-78"/>
</g>
<g id="clust8" class="cluster">
<title>cluster_AppModule_bootstrap</title>
<polygon fill="none" stroke="#000000" points="557,-208 557,-260 681,-260 681,-208 557,-208"/>
</g>
<!-- AppComponent -->
<g id="node1" class="node">
<title>AppComponent</title>
<polygon fill="#ffffb3" stroke="#000000" points="1273.9399,-122 1168.0601,-122 1168.0601,-86 1273.9399,-86 1273.9399,-122"/>
<text text-anchor="middle" x="1221" y="-99.8" font-family="Times,serif" font-size="14.00" fill="#000000">AppComponent</text>
</g>
<!-- AppModule -->
<g id="node4" class="node">
<title>AppModule</title>
<polygon fill="#8dd3c7" stroke="#000000" points="660.6571,-187 657.6571,-191 636.6571,-191 633.6571,-187 577.3429,-187 577.3429,-151 660.6571,-151 660.6571,-187"/>
<text text-anchor="middle" x="619" y="-164.8" font-family="Times,serif" font-size="14.00" fill="#000000">AppModule</text>
</g>
<!-- AppComponent&#45;&gt;AppModule -->
<g id="edge1" class="edge">
<title>AppComponent&#45;&gt;AppModule</title>
<path fill="none" stroke="#000000" d="M1221,-122.0109C1221,-144.4852 1221,-180 1221,-180 1221,-180 670.8535,-180 670.8535,-180"/>
<polygon fill="#000000" stroke="#000000" points="670.8536,-176.5001 660.8535,-180 670.8535,-183.5001 670.8536,-176.5001"/>
</g>
<!-- FixturesComponent -->
<g id="node2" class="node">
<title>FixturesComponent</title>
<polygon fill="#ffffb3" stroke="#000000" points="1150.7162,-122 1023.2838,-122 1023.2838,-86 1150.7162,-86 1150.7162,-122"/>
<text text-anchor="middle" x="1087" y="-99.8" font-family="Times,serif" font-size="14.00" fill="#000000">FixturesComponent</text>
</g>
<!-- FixturesComponent&#45;&gt;AppModule -->
<g id="edge2" class="edge">
<title>FixturesComponent&#45;&gt;AppModule</title>
<path fill="none" stroke="#000000" d="M1087,-122.1289C1087,-142.5724 1087,-173 1087,-173 1087,-173 670.9437,-173 670.9437,-173"/>
<polygon fill="#000000" stroke="#000000" points="670.9438,-169.5001 660.9437,-173 670.9437,-176.5001 670.9438,-169.5001"/>
</g>
<!-- HomeComponent -->
<g id="node3" class="node">
<title>HomeComponent</title>
<polygon fill="#ffffb3" stroke="#000000" points="1005.5451,-122 890.4549,-122 890.4549,-86 1005.5451,-86 1005.5451,-122"/>
<text text-anchor="middle" x="948" y="-99.8" font-family="Times,serif" font-size="14.00" fill="#000000">HomeComponent</text>
</g>
<!-- HomeComponent&#45;&gt;AppModule -->
<g id="edge3" class="edge">
<title>HomeComponent&#45;&gt;AppModule</title>
<path fill="none" stroke="#000000" d="M948,-122.2667C948,-140.5552 948,-166 948,-166 948,-166 670.6681,-166 670.6681,-166"/>
<polygon fill="#000000" stroke="#000000" points="670.6681,-162.5001 660.6681,-166 670.668,-169.5001 670.6681,-162.5001"/>
</g>
<!-- AppComponent  -->
<g id="node12" class="node">
<title>AppComponent </title>
<polygon fill="#80b1d3" stroke="#000000" points="673.439,-252 564.561,-252 564.561,-216 673.439,-216 673.439,-252"/>
<text text-anchor="middle" x="619" y="-229.8" font-family="Times,serif" font-size="14.00" fill="#000000">AppComponent </text>
</g>
<!-- AppModule&#45;&gt;AppComponent  -->
<g id="edge11" class="edge">
<title>AppModule&#45;&gt;AppComponent </title>
<path fill="none" stroke="#000000" stroke-dasharray="1,5" d="M619,-187.1061C619,-187.1061 619,-205.991 619,-205.991"/>
<polygon fill="#000000" stroke="#000000" points="615.5001,-205.9909 619,-215.991 622.5001,-205.991 615.5001,-205.9909"/>
</g>
<!-- AppRoutingModule -->
<g id="node5" class="node">
<title>AppRoutingModule</title>
<polygon fill="#8dd3c7" stroke="#000000" points="866.2744,-122 863.2744,-126 842.2744,-126 839.2744,-122 737.7256,-122 737.7256,-86 866.2744,-86 866.2744,-122"/>
<text text-anchor="middle" x="802" y="-99.8" font-family="Times,serif" font-size="14.00" fill="#000000">AppRoutingModule</text>
</g>
<!-- AppRoutingModule&#45;&gt;AppModule -->
<g id="edge4" class="edge">
<title>AppRoutingModule&#45;&gt;AppModule</title>
<path fill="none" stroke="#000000" d="M802,-122.0091C802,-138.0494 802,-159 802,-159 802,-159 670.9839,-159 670.9839,-159"/>
<polygon fill="#000000" stroke="#000000" points="670.9839,-155.5001 660.9839,-159 670.9839,-162.5001 670.9839,-155.5001"/>
</g>
<!-- AuthModule -->
<g id="node6" class="node">
<title>AuthModule</title>
<polygon fill="#8dd3c7" stroke="#000000" points="719.5482,-122 716.5482,-126 695.5482,-126 692.5482,-122 632.4518,-122 632.4518,-86 719.5482,-86 719.5482,-122"/>
<text text-anchor="middle" x="676" y="-99.8" font-family="Times,serif" font-size="14.00" fill="#000000">AuthModule</text>
</g>
<!-- AuthModule&#45;&gt;AppModule -->
<g id="edge5" class="edge">
<title>AuthModule&#45;&gt;AppModule</title>
<path fill="none" stroke="#000000" d="M646.5274,-122.1061C646.5274,-122.1061 646.5274,-140.991 646.5274,-140.991"/>
<polygon fill="#000000" stroke="#000000" points="643.0274,-140.9909 646.5274,-150.991 650.0274,-140.991 643.0274,-140.9909"/>
</g>
<!-- ContactModule -->
<g id="node7" class="node">
<title>ContactModule</title>
<polygon fill="#8dd3c7" stroke="#000000" points="614.5968,-122 611.5968,-126 590.5968,-126 587.5968,-122 511.4032,-122 511.4032,-86 614.5968,-86 614.5968,-122"/>
<text text-anchor="middle" x="563" y="-99.8" font-family="Times,serif" font-size="14.00" fill="#000000">ContactModule</text>
</g>
<!-- ContactModule&#45;&gt;AppModule -->
<g id="edge6" class="edge">
<title>ContactModule&#45;&gt;AppModule</title>
<path fill="none" stroke="#000000" d="M595.8601,-122.1061C595.8601,-122.1061 595.8601,-140.991 595.8601,-140.991"/>
<polygon fill="#000000" stroke="#000000" points="592.3602,-140.9909 595.8601,-150.991 599.3602,-140.991 592.3602,-140.9909"/>
</g>
<!-- SharedModule -->
<g id="node8" class="node">
<title>SharedModule</title>
<polygon fill="#8dd3c7" stroke="#000000" points="493.4231,-122 490.4231,-126 469.4231,-126 466.4231,-122 394.5769,-122 394.5769,-86 493.4231,-86 493.4231,-122"/>
<text text-anchor="middle" x="444" y="-99.8" font-family="Times,serif" font-size="14.00" fill="#000000">SharedModule</text>
</g>
<!-- SharedModule&#45;&gt;AppModule -->
<g id="edge7" class="edge">
<title>SharedModule&#45;&gt;AppModule</title>
<path fill="none" stroke="#000000" d="M444,-122.0091C444,-138.0494 444,-159 444,-159 444,-159 567.0831,-159 567.0831,-159"/>
<polygon fill="#000000" stroke="#000000" points="567.0832,-162.5001 577.0831,-159 567.0831,-155.5001 567.0832,-162.5001"/>
</g>
<!-- FooterModule -->
<g id="node9" class="node">
<title>FooterModule</title>
<polygon fill="#8dd3c7" stroke="#000000" points="377.0983,-122 374.0983,-126 353.0983,-126 350.0983,-122 280.9017,-122 280.9017,-86 377.0983,-86 377.0983,-122"/>
<text text-anchor="middle" x="329" y="-99.8" font-family="Times,serif" font-size="14.00" fill="#000000">FooterModule</text>
</g>
<!-- FooterModule&#45;&gt;AppModule -->
<g id="edge8" class="edge">
<title>FooterModule&#45;&gt;AppModule</title>
<path fill="none" stroke="#000000" d="M329,-122.2667C329,-140.5552 329,-166 329,-166 329,-166 567.1412,-166 567.1412,-166"/>
<polygon fill="#000000" stroke="#000000" points="567.1413,-169.5001 577.1412,-166 567.1412,-162.5001 567.1413,-169.5001"/>
</g>
<!-- CoreModule -->
<g id="node10" class="node">
<title>CoreModule</title>
<polygon fill="#8dd3c7" stroke="#000000" points="263.2619,-122 260.2619,-126 239.2619,-126 236.2619,-122 176.7381,-122 176.7381,-86 263.2619,-86 263.2619,-122"/>
<text text-anchor="middle" x="220" y="-99.8" font-family="Times,serif" font-size="14.00" fill="#000000">CoreModule</text>
</g>
<!-- CoreModule&#45;&gt;AppModule -->
<g id="edge9" class="edge">
<title>CoreModule&#45;&gt;AppModule</title>
<path fill="none" stroke="#000000" d="M220,-122.1289C220,-142.5724 220,-173 220,-173 220,-173 567.0541,-173 567.0541,-173"/>
<polygon fill="#000000" stroke="#000000" points="567.0542,-176.5001 577.0541,-173 567.0541,-169.5001 567.0542,-176.5001"/>
</g>
<!-- CompetitionsModule -->
<g id="node11" class="node">
<title>CompetitionsModule</title>
<polygon fill="#8dd3c7" stroke="#000000" points="158.4986,-122 155.4986,-126 134.4986,-126 131.4986,-122 23.5014,-122 23.5014,-86 158.4986,-86 158.4986,-122"/>
<text text-anchor="middle" x="91" y="-99.8" font-family="Times,serif" font-size="14.00" fill="#000000">CompetitionsModule</text>
</g>
<!-- CompetitionsModule&#45;&gt;AppModule -->
<g id="edge10" class="edge">
<title>CompetitionsModule&#45;&gt;AppModule</title>
<path fill="none" stroke="#000000" d="M91,-122.0109C91,-144.4852 91,-180 91,-180 91,-180 567.1274,-180 567.1274,-180"/>
<polygon fill="#000000" stroke="#000000" points="567.1274,-183.5001 577.1274,-180 567.1274,-176.5001 567.1274,-183.5001"/>
</g>
</g>
</svg>
