<?xml version="1.0" encoding="UTF-8" standalone="no"?>
<!DOCTYPE svg PUBLIC "-//W3C//DTD SVG 1.1//EN"
 "http://www.w3.org/Graphics/SVG/1.1/DTD/svg11.dtd">
<!-- Generated by graphviz version 2.40.1 (20161225.0304)
 -->
<!-- Title: dependencies Pages: 1 -->
<svg width="1129pt" height="211pt"
 viewBox="0.00 0.00 1129.00 211.00" xmlns="http://www.w3.org/2000/svg" xmlns:xlink="http://www.w3.org/1999/xlink">
<g id="graph0" class="graph" transform="scale(1 1) rotate(0) translate(4 207)">
<title>dependencies</title>
<polygon fill="#ffffff" stroke="transparent" points="-4,4 -4,-207 1125,-207 1125,4 -4,4"/>
<text text-anchor="start" x="539.5091" y="-42.4" font-family="sans-serif" font-weight="bold" font-size="14.00" fill="#000000">Legend</text>
<polygon fill="#ffffb3" stroke="transparent" points="326.5,-10 326.5,-30 346.5,-30 346.5,-10 326.5,-10"/>
<text text-anchor="start" x="350.129" y="-15.4" font-family="sans-serif" font-size="14.00" fill="#000000"> &#160;Declarations</text>
<polygon fill="#8dd3c7" stroke="transparent" points="439.5,-10 439.5,-30 459.5,-30 459.5,-10 439.5,-10"/>
<text text-anchor="start" x="463.2251" y="-15.4" font-family="sans-serif" font-size="14.00" fill="#000000"> &#160;Module</text>
<polygon fill="#80b1d3" stroke="transparent" points="525.5,-10 525.5,-30 545.5,-30 545.5,-10 525.5,-10"/>
<text text-anchor="start" x="549.2812" y="-15.4" font-family="sans-serif" font-size="14.00" fill="#000000"> &#160;Bootstrap</text>
<polygon fill="#fdb462" stroke="transparent" points="622.5,-10 622.5,-30 642.5,-30 642.5,-10 622.5,-10"/>
<text text-anchor="start" x="646.1732" y="-15.4" font-family="sans-serif" font-size="14.00" fill="#000000"> &#160;Providers</text>
<polygon fill="#fb8072" stroke="transparent" points="718.5,-10 718.5,-30 738.5,-30 738.5,-10 718.5,-10"/>
<text text-anchor="start" x="742.2258" y="-15.4" font-family="sans-serif" font-size="14.00" fill="#000000"> &#160;Exports</text>
<g id="clust1" class="cluster">
<title>cluster_CoreModule</title>
<polygon fill="none" stroke="#000000" stroke-dasharray="1,5" points="8,-70 8,-195 1113,-195 1113,-70 8,-70"/>
</g>
<g id="clust6" class="cluster">
<title>cluster_CoreModule_providers</title>
<polygon fill="none" stroke="#000000" points="16,-78 16,-130 1105,-130 1105,-78 16,-78"/>
</g>
<!-- AuthService -->
<g id="node1" class="node">
<title>AuthService</title>
<ellipse fill="#fdb462" stroke="#000000" cx="1038" cy="-104" rx="59.1083" ry="18"/>
<text text-anchor="middle" x="1038" y="-99.8" font-family="Times,serif" font-size="14.00" fill="#000000">AuthService</text>
</g>
<!-- CoreModule -->
<g id="node8" class="node">
<title>CoreModule</title>
<polygon fill="#8dd3c7" stroke="#000000" points="568.2619,-187 565.2619,-191 544.2619,-191 541.2619,-187 481.7381,-187 481.7381,-151 568.2619,-151 568.2619,-187"/>
<text text-anchor="middle" x="525" y="-164.8" font-family="Times,serif" font-size="14.00" fill="#000000">CoreModule</text>
</g>
<!-- AuthService&#45;&gt;CoreModule -->
<g id="edge1" class="edge">
<title>AuthService&#45;&gt;CoreModule</title>
<path fill="none" stroke="#000000" d="M1038,-122.2921C1038,-144.2057 1038,-178 1038,-178 1038,-178 578.296,-178 578.296,-178"/>
<polygon fill="#000000" stroke="#000000" points="578.296,-174.5001 568.296,-178 578.2959,-181.5001 578.296,-174.5001"/>
</g>
<!-- CompetitionsService -->
<g id="node2" class="node">
<title>CompetitionsService</title>
<ellipse fill="#fdb462" stroke="#000000" cx="869" cy="-104" rx="92.0702" ry="18"/>
<text text-anchor="middle" x="869" y="-99.8" font-family="Times,serif" font-size="14.00" fill="#000000">CompetitionsService</text>
</g>
<!-- CompetitionsService&#45;&gt;CoreModule -->
<g id="edge2" class="edge">
<title>CompetitionsService&#45;&gt;CoreModule</title>
<path fill="none" stroke="#000000" d="M869,-122.1061C869,-141.3391 869,-169 869,-169 869,-169 578.5678,-169 578.5678,-169"/>
<polygon fill="#000000" stroke="#000000" points="578.5679,-165.5001 568.5678,-169 578.5678,-172.5001 578.5679,-165.5001"/>
</g>
<!-- FixturesServices -->
<g id="node3" class="node">
<title>FixturesServices</title>
<ellipse fill="#fdb462" stroke="#000000" cx="684" cy="-104" rx="75.2944" ry="18"/>
<text text-anchor="middle" x="684" y="-99.8" font-family="Times,serif" font-size="14.00" fill="#000000">FixturesServices</text>
</g>
<!-- FixturesServices&#45;&gt;CoreModule -->
<g id="edge3" class="edge">
<title>FixturesServices&#45;&gt;CoreModule</title>
<path fill="none" stroke="#000000" d="M684,-122.027C684,-138.3976 684,-160 684,-160 684,-160 578.4474,-160 578.4474,-160"/>
<polygon fill="#000000" stroke="#000000" points="578.4475,-156.5001 568.4474,-160 578.4474,-163.5001 578.4475,-156.5001"/>
</g>
<!-- TablesService -->
<g id="node4" class="node">
<title>TablesService</title>
<ellipse fill="#fdb462" stroke="#000000" cx="525" cy="-104" rx="65.9658" ry="18"/>
<text text-anchor="middle" x="525" y="-99.8" font-family="Times,serif" font-size="14.00" fill="#000000">TablesService</text>
</g>
<!-- TablesService&#45;&gt;CoreModule -->
<g id="edge4" class="edge">
<title>TablesService&#45;&gt;CoreModule</title>
<path fill="none" stroke="#000000" d="M525,-122.1061C525,-122.1061 525,-140.991 525,-140.991"/>
<polygon fill="#000000" stroke="#000000" points="521.5001,-140.9909 525,-150.991 528.5001,-140.991 521.5001,-140.9909"/>
</g>
<!-- PlayersServices -->
<g id="node5" class="node">
<title>PlayersServices</title>
<ellipse fill="#fdb462" stroke="#000000" cx="369" cy="-104" rx="72.3439" ry="18"/>
<text text-anchor="middle" x="369" y="-99.8" font-family="Times,serif" font-size="14.00" fill="#000000">PlayersServices</text>
</g>
<!-- PlayersServices&#45;&gt;CoreModule -->
<g id="edge5" class="edge">
<title>PlayersServices&#45;&gt;CoreModule</title>
<path fill="none" stroke="#000000" d="M369,-122.027C369,-138.3976 369,-160 369,-160 369,-160 471.5453,-160 471.5453,-160"/>
<polygon fill="#000000" stroke="#000000" points="471.5453,-163.5001 481.5453,-160 471.5453,-156.5001 471.5453,-163.5001"/>
</g>
<!-- AuthGuard -->
<g id="node6" class="node">
<title>AuthGuard</title>
<ellipse fill="#fdb462" stroke="#000000" cx="224" cy="-104" rx="54.4566" ry="18"/>
<text text-anchor="middle" x="224" y="-99.8" font-family="Times,serif" font-size="14.00" fill="#000000">AuthGuard</text>
</g>
<!-- AuthGuard&#45;&gt;CoreModule -->
<g id="edge6" class="edge">
<title>AuthGuard&#45;&gt;CoreModule</title>
<path fill="none" stroke="#000000" d="M224,-122.1061C224,-141.3391 224,-169 224,-169 224,-169 471.5535,-169 471.5535,-169"/>
<polygon fill="#000000" stroke="#000000" points="471.5535,-172.5001 481.5535,-169 471.5534,-165.5001 471.5535,-172.5001"/>
</g>
<!-- UnauthGuard -->
<g id="node7" class="node">
<title>UnauthGuard</title>
<ellipse fill="#fdb462" stroke="#000000" cx="88" cy="-104" rx="63.6871" ry="18"/>
<text text-anchor="middle" x="88" y="-99.8" font-family="Times,serif" font-size="14.00" fill="#000000">UnauthGuard</text>
</g>
<!-- UnauthGuard&#45;&gt;CoreModule -->
<g id="edge7" class="edge">
<title>UnauthGuard&#45;&gt;CoreModule</title>
<path fill="none" stroke="#000000" d="M88,-122.2921C88,-144.2057 88,-178 88,-178 88,-178 471.5011,-178 471.5011,-178"/>
<polygon fill="#000000" stroke="#000000" points="471.5012,-181.5001 481.5011,-178 471.5011,-174.5001 471.5012,-181.5001"/>
</g>
</g>
</svg>
