<?xml version="1.0" encoding="UTF-8" standalone="no"?>
<!DOCTYPE svg PUBLIC "-//W3C//DTD SVG 1.1//EN"
 "http://www.w3.org/Graphics/SVG/1.1/DTD/svg11.dtd">
<!-- Generated by graphviz version 2.40.1 (20161225.0304)
 -->
<!-- Title: dependencies Pages: 1 -->
<svg width="633pt" height="284pt"
 viewBox="0.00 0.00 633.00 284.00" xmlns="http://www.w3.org/2000/svg" xmlns:xlink="http://www.w3.org/1999/xlink">
<g id="graph0" class="graph" transform="scale(1 1) rotate(0) translate(4 280)">
<title>dependencies</title>
<polygon fill="#ffffff" stroke="transparent" points="-4,4 -4,-280 629,-280 629,4 -4,4"/>
<text text-anchor="start" x="291.5091" y="-42.4" font-family="sans-serif" font-weight="bold" font-size="14.00" fill="#000000">Legend</text>
<polygon fill="#ffffb3" stroke="transparent" points="78.5,-10 78.5,-30 98.5,-30 98.5,-10 78.5,-10"/>
<text text-anchor="start" x="102.129" y="-15.4" font-family="sans-serif" font-size="14.00" fill="#000000"> &#160;Declarations</text>
<polygon fill="#8dd3c7" stroke="transparent" points="191.5,-10 191.5,-30 211.5,-30 211.5,-10 191.5,-10"/>
<text text-anchor="start" x="215.2251" y="-15.4" font-family="sans-serif" font-size="14.00" fill="#000000"> &#160;Module</text>
<polygon fill="#80b1d3" stroke="transparent" points="277.5,-10 277.5,-30 297.5,-30 297.5,-10 277.5,-10"/>
<text text-anchor="start" x="301.2812" y="-15.4" font-family="sans-serif" font-size="14.00" fill="#000000"> &#160;Bootstrap</text>
<polygon fill="#fdb462" stroke="transparent" points="374.5,-10 374.5,-30 394.5,-30 394.5,-10 374.5,-10"/>
<text text-anchor="start" x="398.1732" y="-15.4" font-family="sans-serif" font-size="14.00" fill="#000000"> &#160;Providers</text>
<polygon fill="#fb8072" stroke="transparent" points="470.5,-10 470.5,-30 490.5,-30 490.5,-10 470.5,-10"/>
<text text-anchor="start" x="494.2258" y="-15.4" font-family="sans-serif" font-size="14.00" fill="#000000"> &#160;Exports</text>
<g id="clust1" class="cluster">
<title>cluster_SharedModule</title>
<polygon fill="none" stroke="#000000" stroke-dasharray="1,5" points="8,-70 8,-268 617,-268 617,-70 8,-70"/>
</g>
<g id="clust2" class="cluster">
<title>cluster_SharedModule_declarations</title>
<polygon fill="none" stroke="#000000" points="24,-78 24,-130 603,-130 603,-78 24,-78"/>
</g>
<g id="clust8" class="cluster">
<title>cluster_SharedModule_exports</title>
<polygon fill="none" stroke="#000000" points="16,-208 16,-260 609,-260 609,-208 16,-208"/>
</g>
<!-- LoaderComponent -->
<g id="node1" class="node">
<title>LoaderComponent</title>
<polygon fill="#ffffb3" stroke="#000000" points="595.4748,-122 474.5252,-122 474.5252,-86 595.4748,-86 595.4748,-122"/>
<text text-anchor="middle" x="535" y="-99.8" font-family="Times,serif" font-size="14.00" fill="#000000">LoaderComponent</text>
</g>
<!-- SharedModule -->
<g id="node5" class="node">
<title>SharedModule</title>
<polygon fill="#8dd3c7" stroke="#000000" points="298.4231,-187 295.4231,-191 274.4231,-191 271.4231,-187 199.5769,-187 199.5769,-151 298.4231,-151 298.4231,-187"/>
<text text-anchor="middle" x="249" y="-164.8" font-family="Times,serif" font-size="14.00" fill="#000000">SharedModule</text>
</g>
<!-- LoaderComponent&#45;&gt;SharedModule -->
<g id="edge1" class="edge">
<title>LoaderComponent&#45;&gt;SharedModule</title>
<path fill="none" stroke="#000000" d="M555.9125,-122.2667C555.9125,-140.5552 555.9125,-166 555.9125,-166 555.9125,-166 308.3108,-166 308.3108,-166"/>
<polygon fill="#000000" stroke="#000000" points="308.3108,-162.5001 298.3108,-166 308.3108,-169.5001 308.3108,-162.5001"/>
</g>
<!-- AuthNavComponent -->
<g id="node2" class="node">
<title>AuthNavComponent</title>
<polygon fill="#ffffb3" stroke="#000000" points="456.1513,-122 323.8487,-122 323.8487,-86 456.1513,-86 456.1513,-122"/>
<text text-anchor="middle" x="390" y="-99.8" font-family="Times,serif" font-size="14.00" fill="#000000">AuthNavComponent</text>
</g>
<!-- AuthNavComponent&#45;&gt;SharedModule -->
<g id="edge2" class="edge">
<title>AuthNavComponent&#45;&gt;SharedModule</title>
<path fill="none" stroke="#000000" d="M412.1085,-122.0091C412.1085,-138.0494 412.1085,-159 412.1085,-159 412.1085,-159 308.3806,-159 308.3806,-159"/>
<polygon fill="#000000" stroke="#000000" points="308.3806,-155.5001 298.3806,-159 308.3805,-162.5001 308.3806,-155.5001"/>
</g>
<!-- FooterComponent -->
<g id="node3" class="node">
<title>FooterComponent</title>
<polygon fill="#ffffb3" stroke="#000000" points="305.8809,-122 188.1191,-122 188.1191,-86 305.8809,-86 305.8809,-122"/>
<text text-anchor="middle" x="247" y="-99.8" font-family="Times,serif" font-size="14.00" fill="#000000">FooterComponent</text>
</g>
<!-- FooterComponent&#45;&gt;SharedModule -->
<g id="edge3" class="edge">
<title>FooterComponent&#45;&gt;SharedModule</title>
<path fill="none" stroke="#000000" d="M249,-122.1061C249,-122.1061 249,-140.991 249,-140.991"/>
<polygon fill="#000000" stroke="#000000" points="245.5001,-140.9909 249,-150.991 252.5001,-140.991 245.5001,-140.9909"/>
</g>
<!-- NotFoundComponent -->
<g id="node4" class="node">
<title>NotFoundComponent</title>
<polygon fill="#ffffb3" stroke="#000000" points="170.1122,-122 31.8878,-122 31.8878,-86 170.1122,-86 170.1122,-122"/>
<text text-anchor="middle" x="101" y="-99.8" font-family="Times,serif" font-size="14.00" fill="#000000">NotFoundComponent</text>
</g>
<!-- NotFoundComponent&#45;&gt;SharedModule -->
<g id="edge4" class="edge">
<title>NotFoundComponent&#45;&gt;SharedModule</title>
<path fill="none" stroke="#000000" d="M121.1854,-122.0225C121.1854,-139.3734 121.1854,-163 121.1854,-163 121.1854,-163 189.5835,-163 189.5835,-163"/>
<polygon fill="#000000" stroke="#000000" points="189.5836,-166.5001 199.5835,-163 189.5835,-159.5001 189.5836,-166.5001"/>
</g>
<!-- LoaderComponent  -->
<g id="node6" class="node">
<title>LoaderComponent </title>
<polygon fill="#fb8072" stroke="#000000" points="601.4757,-252 476.5243,-252 476.5243,-216 601.4757,-216 601.4757,-252"/>
<text text-anchor="middle" x="539" y="-229.8" font-family="Times,serif" font-size="14.00" fill="#000000">LoaderComponent </text>
</g>
<!-- SharedModule&#45;&gt;LoaderComponent  -->
<g id="edge5" class="edge">
<title>SharedModule&#45;&gt;LoaderComponent </title>
<path fill="none" stroke="#000000" stroke-dasharray="5,2" d="M298.3454,-173C375.591,-173 516.3375,-173 516.3375,-173 516.3375,-173 516.3375,-205.698 516.3375,-205.698"/>
<polygon fill="#000000" stroke="#000000" points="512.8376,-205.698 516.3375,-215.698 519.8376,-205.698 512.8376,-205.698"/>
</g>
<!-- AuthNavComponent  -->
<g id="node7" class="node">
<title>AuthNavComponent </title>
<polygon fill="#fb8072" stroke="#000000" points="459.1509,-252 322.8491,-252 322.8491,-216 459.1509,-216 459.1509,-252"/>
<text text-anchor="middle" x="391" y="-229.8" font-family="Times,serif" font-size="14.00" fill="#000000">AuthNavComponent </text>
</g>
<!-- SharedModule&#45;&gt;AuthNavComponent  -->
<g id="edge6" class="edge">
<title>SharedModule&#45;&gt;AuthNavComponent </title>
<path fill="none" stroke="#000000" stroke-dasharray="5,2" d="M298.3878,-180C331.0531,-180 367.8915,-180 367.8915,-180 367.8915,-180 367.8915,-205.7181 367.8915,-205.7181"/>
<polygon fill="#000000" stroke="#000000" points="364.3916,-205.718 367.8915,-215.7181 371.3916,-205.7181 364.3916,-205.718"/>
</g>
<!-- FooterComponent  -->
<g id="node8" class="node">
<title>FooterComponent </title>
<polygon fill="#fb8072" stroke="#000000" points="304.8814,-252 183.1186,-252 183.1186,-216 304.8814,-216 304.8814,-252"/>
<text text-anchor="middle" x="244" y="-229.8" font-family="Times,serif" font-size="14.00" fill="#000000">FooterComponent </text>
</g>
<!-- SharedModule&#45;&gt;FooterComponent  -->
<g id="edge7" class="edge">
<title>SharedModule&#45;&gt;FooterComponent </title>
<path fill="none" stroke="#000000" stroke-dasharray="5,2" d="M249,-187.1061C249,-187.1061 249,-205.991 249,-205.991"/>
<polygon fill="#000000" stroke="#000000" points="245.5001,-205.9909 249,-215.991 252.5001,-205.991 245.5001,-205.9909"/>
</g>
<!-- NotFoundComponent  -->
<g id="node9" class="node">
<title>NotFoundComponent </title>
<polygon fill="#fb8072" stroke="#000000" points="165.6127,-252 24.3873,-252 24.3873,-216 165.6127,-216 165.6127,-252"/>
<text text-anchor="middle" x="95" y="-229.8" font-family="Times,serif" font-size="14.00" fill="#000000">NotFoundComponent </text>
</g>
<!-- SharedModule&#45;&gt;NotFoundComponent  -->
<g id="edge8" class="edge">
<title>SharedModule&#45;&gt;NotFoundComponent </title>
<path fill="none" stroke="#000000" stroke-dasharray="5,2" d="M199.5869,-175C148.6326,-175 76.5646,-175 76.5646,-175 76.5646,-175 76.5646,-205.9775 76.5646,-205.9775"/>
<polygon fill="#000000" stroke="#000000" points="73.0647,-205.9774 76.5646,-215.9775 80.0647,-205.9775 73.0647,-205.9774"/>
</g>
</g>
</svg>
