<?xml version="1.0" encoding="UTF-8" standalone="no"?>
<!DOCTYPE svg PUBLIC "-//W3C//DTD SVG 1.1//EN"
 "http://www.w3.org/Graphics/SVG/1.1/DTD/svg11.dtd">
<!-- Generated by graphviz version 2.40.1 (20161225.0304)
 -->
<!-- Title: dependencies Pages: 1 -->
<svg width="1325pt" height="284pt"
 viewBox="0.00 0.00 1325.00 284.00" xmlns="http://www.w3.org/2000/svg" xmlns:xlink="http://www.w3.org/1999/xlink">
<g id="graph0" class="graph" transform="scale(1 1) rotate(0) translate(4 280)">
<title>dependencies</title>
<polygon fill="#ffffff" stroke="transparent" points="-4,4 -4,-280 1321,-280 1321,4 -4,4"/>
<text text-anchor="start" x="637.5091" y="-42.4" font-family="sans-serif" font-weight="bold" font-size="14.00" fill="#000000">Legend</text>
<polygon fill="#ffffb3" stroke="transparent" points="424.5,-10 424.5,-30 444.5,-30 444.5,-10 424.5,-10"/>
<text text-anchor="start" x="448.129" y="-15.4" font-family="sans-serif" font-size="14.00" fill="#000000"> &#160;Declarations</text>
<polygon fill="#8dd3c7" stroke="transparent" points="537.5,-10 537.5,-30 557.5,-30 557.5,-10 537.5,-10"/>
<text text-anchor="start" x="561.2251" y="-15.4" font-family="sans-serif" font-size="14.00" fill="#000000"> &#160;Module</text>
<polygon fill="#80b1d3" stroke="transparent" points="623.5,-10 623.5,-30 643.5,-30 643.5,-10 623.5,-10"/>
<text text-anchor="start" x="647.2812" y="-15.4" font-family="sans-serif" font-size="14.00" fill="#000000"> &#160;Bootstrap</text>
<polygon fill="#fdb462" stroke="transparent" points="720.5,-10 720.5,-30 740.5,-30 740.5,-10 720.5,-10"/>
<text text-anchor="start" x="744.1732" y="-15.4" font-family="sans-serif" font-size="14.00" fill="#000000"> &#160;Providers</text>
<polygon fill="#fb8072" stroke="transparent" points="816.5,-10 816.5,-30 836.5,-30 836.5,-10 816.5,-10"/>
<text text-anchor="start" x="840.2258" y="-15.4" font-family="sans-serif" font-size="14.00" fill="#000000"> &#160;Exports</text>
<g id="clust1" class="cluster">
<title>cluster_SharedModule</title>
<polygon fill="none" stroke="#000000" stroke-dasharray="1,5" points="8,-70 8,-268 1309,-268 1309,-70 8,-70"/>
</g>
<g id="clust2" class="cluster">
<title>cluster_SharedModule_declarations</title>
<polygon fill="none" stroke="#000000" points="32,-78 32,-130 1291,-130 1291,-78 32,-78"/>
</g>
<g id="clust12" class="cluster">
<title>cluster_SharedModule_exports</title>
<polygon fill="none" stroke="#000000" points="16,-208 16,-260 1301,-260 1301,-208 16,-208"/>
</g>
<!-- LoaderComponent -->
<g id="node1" class="node">
<title>LoaderComponent</title>
<polygon fill="#ffffb3" stroke="#000000" points="1283.4748,-122 1162.5252,-122 1162.5252,-86 1283.4748,-86 1283.4748,-122"/>
<text text-anchor="middle" x="1223" y="-99.8" font-family="Times,serif" font-size="14.00" fill="#000000">LoaderComponent</text>
</g>
<!-- SharedModule -->
<g id="node9" class="node">
<title>SharedModule</title>
<polygon fill="#8dd3c7" stroke="#000000" points="697.4231,-187 694.4231,-191 673.4231,-191 670.4231,-187 598.5769,-187 598.5769,-151 697.4231,-151 697.4231,-187"/>
<text text-anchor="middle" x="648" y="-164.8" font-family="Times,serif" font-size="14.00" fill="#000000">SharedModule</text>
</g>
<!-- LoaderComponent&#45;&gt;SharedModule -->
<g id="edge1" class="edge">
<title>LoaderComponent&#45;&gt;SharedModule</title>
<path fill="none" stroke="#000000" d="M1245.2458,-122.2222C1245.2458,-140.8285 1245.2458,-167 1245.2458,-167 1245.2458,-167 707.3833,-167 707.3833,-167"/>
<polygon fill="#000000" stroke="#000000" points="707.3833,-163.5001 697.3833,-167 707.3832,-170.5001 707.3833,-163.5001"/>
</g>
<!-- AuthNavComponent -->
<g id="node2" class="node">
<title>AuthNavComponent</title>
<polygon fill="#ffffb3" stroke="#000000" points="1144.1513,-122 1011.8487,-122 1011.8487,-86 1144.1513,-86 1144.1513,-122"/>
<text text-anchor="middle" x="1078" y="-99.8" font-family="Times,serif" font-size="14.00" fill="#000000">AuthNavComponent</text>
</g>
<!-- AuthNavComponent&#45;&gt;SharedModule -->
<g id="edge2" class="edge">
<title>AuthNavComponent&#45;&gt;SharedModule</title>
<path fill="none" stroke="#000000" d="M1101.1918,-122.0225C1101.1918,-139.3734 1101.1918,-163 1101.1918,-163 1101.1918,-163 707.3622,-163 707.3622,-163"/>
<polygon fill="#000000" stroke="#000000" points="707.3622,-159.5001 697.3622,-163 707.3621,-166.5001 707.3622,-159.5001"/>
</g>
<!-- FooterComponent -->
<g id="node3" class="node">
<title>FooterComponent</title>
<polygon fill="#ffffb3" stroke="#000000" points="993.8809,-122 876.1191,-122 876.1191,-86 993.8809,-86 993.8809,-122"/>
<text text-anchor="middle" x="935" y="-99.8" font-family="Times,serif" font-size="14.00" fill="#000000">FooterComponent</text>
</g>
<!-- FooterComponent&#45;&gt;SharedModule -->
<g id="edge3" class="edge">
<title>FooterComponent&#45;&gt;SharedModule</title>
<path fill="none" stroke="#000000" d="M954.6468,-122.0091C954.6468,-138.0494 954.6468,-159 954.6468,-159 954.6468,-159 707.2681,-159 707.2681,-159"/>
<polygon fill="#000000" stroke="#000000" points="707.2681,-155.5001 697.2681,-159 707.2681,-162.5001 707.2681,-155.5001"/>
</g>
<!-- NotFoundComponent -->
<g id="node4" class="node">
<title>NotFoundComponent</title>
<polygon fill="#ffffb3" stroke="#000000" points="858.1122,-122 719.8878,-122 719.8878,-86 858.1122,-86 858.1122,-122"/>
<text text-anchor="middle" x="789" y="-99.8" font-family="Times,serif" font-size="14.00" fill="#000000">NotFoundComponent</text>
</g>
<!-- NotFoundComponent&#45;&gt;SharedModule -->
<g id="edge4" class="edge">
<title>NotFoundComponent&#45;&gt;SharedModule</title>
<path fill="none" stroke="#000000" d="M765.898,-122.1243C765.898,-136.7832 765.898,-155 765.898,-155 765.898,-155 707.3162,-155 707.3162,-155"/>
<polygon fill="#000000" stroke="#000000" points="707.3163,-151.5001 697.3162,-155 707.3162,-158.5001 707.3163,-151.5001"/>
</g>
<!-- FilterLeaguesPipe -->
<g id="node5" class="node">
<title>FilterLeaguesPipe</title>
<polygon fill="#ffffb3" stroke="#000000" points="701.8585,-122 584.1415,-122 584.1415,-86 701.8585,-86 701.8585,-122"/>
<text text-anchor="middle" x="643" y="-99.8" font-family="Times,serif" font-size="14.00" fill="#000000">FilterLeaguesPipe</text>
</g>
<!-- FilterLeaguesPipe&#45;&gt;SharedModule -->
<g id="edge5" class="edge">
<title>FilterLeaguesPipe&#45;&gt;SharedModule</title>
<path fill="none" stroke="#000000" d="M648,-122.1061C648,-122.1061 648,-140.991 648,-140.991"/>
<polygon fill="#000000" stroke="#000000" points="644.5001,-140.9909 648,-150.991 651.5001,-140.991 644.5001,-140.9909"/>
</g>
<!-- SortPlayersByNumberPipe -->
<g id="node6" class="node">
<title>SortPlayersByNumberPipe</title>
<polygon fill="#ffffb3" stroke="#000000" points="565.6386,-122 398.3614,-122 398.3614,-86 565.6386,-86 565.6386,-122"/>
<text text-anchor="middle" x="482" y="-99.8" font-family="Times,serif" font-size="14.00" fill="#000000">SortPlayersByNumberPipe</text>
</g>
<!-- SortPlayersByNumberPipe&#45;&gt;SharedModule -->
<g id="edge6" class="edge">
<title>SortPlayersByNumberPipe&#45;&gt;SharedModule</title>
<path fill="none" stroke="#000000" d="M505.773,-122.2396C505.773,-137.5706 505.773,-157 505.773,-157 505.773,-157 588.6551,-157 588.6551,-157"/>
<polygon fill="#000000" stroke="#000000" points="588.6551,-160.5001 598.6551,-157 588.655,-153.5001 588.6551,-160.5001"/>
</g>
<!-- HoverTableRowDirective -->
<g id="node7" class="node">
<title>HoverTableRowDirective</title>
<polygon fill="#ffffb3" stroke="#000000" points="379.8806,-122 218.1194,-122 218.1194,-86 379.8806,-86 379.8806,-122"/>
<text text-anchor="middle" x="299" y="-99.8" font-family="Times,serif" font-size="14.00" fill="#000000">HoverTableRowDirective</text>
</g>
<!-- HoverTableRowDirective&#45;&gt;SharedModule -->
<g id="edge7" class="edge">
<title>HoverTableRowDirective&#45;&gt;SharedModule</title>
<path fill="none" stroke="#000000" d="M375.0651,-122.0336C375.0651,-139.0597 375.0651,-162 375.0651,-162 375.0651,-162 588.5735,-162 588.5735,-162"/>
<polygon fill="#000000" stroke="#000000" points="588.5736,-165.5001 598.5735,-162 588.5735,-158.5001 588.5736,-165.5001"/>
</g>
<!-- StyleTableTitlesDirective -->
<g id="node8" class="node">
<title>StyleTableTitlesDirective</title>
<polygon fill="#ffffb3" stroke="#000000" points="200.1177,-122 39.8823,-122 39.8823,-86 200.1177,-86 200.1177,-122"/>
<text text-anchor="middle" x="120" y="-99.8" font-family="Times,serif" font-size="14.00" fill="#000000">StyleTableTitlesDirective</text>
</g>
<!-- StyleTableTitlesDirective&#45;&gt;SharedModule -->
<g id="edge8" class="edge">
<title>StyleTableTitlesDirective&#45;&gt;SharedModule</title>
<path fill="none" stroke="#000000" d="M194.1836,-122.2222C194.1836,-140.8285 194.1836,-167 194.1836,-167 194.1836,-167 588.5698,-167 588.5698,-167"/>
<polygon fill="#000000" stroke="#000000" points="588.5698,-170.5001 598.5698,-167 588.5698,-163.5001 588.5698,-170.5001"/>
</g>
<!-- LoaderComponent  -->
<g id="node10" class="node">
<title>LoaderComponent </title>
<polygon fill="#fb8072" stroke="#000000" points="1293.4757,-252 1168.5243,-252 1168.5243,-216 1293.4757,-216 1293.4757,-252"/>
<text text-anchor="middle" x="1231" y="-229.8" font-family="Times,serif" font-size="14.00" fill="#000000">LoaderComponent </text>
</g>
<!-- SharedModule&#45;&gt;LoaderComponent  -->
<g id="edge9" class="edge">
<title>SharedModule&#45;&gt;LoaderComponent </title>
<path fill="none" stroke="#000000" stroke-dasharray="5,2" d="M697.6079,-171C834.4172,-171 1207.0042,-171 1207.0042,-171 1207.0042,-171 1207.0042,-205.7778 1207.0042,-205.7778"/>
<polygon fill="#000000" stroke="#000000" points="1203.5043,-205.7778 1207.0042,-215.7778 1210.5043,-205.7778 1203.5043,-205.7778"/>
</g>
<!-- AuthNavComponent  -->
<g id="node11" class="node">
<title>AuthNavComponent </title>
<polygon fill="#fb8072" stroke="#000000" points="1151.1509,-252 1014.8491,-252 1014.8491,-216 1151.1509,-216 1151.1509,-252"/>
<text text-anchor="middle" x="1083" y="-229.8" font-family="Times,serif" font-size="14.00" fill="#000000">AuthNavComponent </text>
</g>
<!-- SharedModule&#45;&gt;AuthNavComponent  -->
<g id="edge10" class="edge">
<title>SharedModule&#45;&gt;AuthNavComponent </title>
<path fill="none" stroke="#000000" stroke-dasharray="5,2" d="M697.4626,-175C806.5256,-175 1058.0582,-175 1058.0582,-175 1058.0582,-175 1058.0582,-205.9775 1058.0582,-205.9775"/>
<polygon fill="#000000" stroke="#000000" points="1054.5583,-205.9774 1058.0582,-215.9775 1061.5583,-205.9775 1054.5583,-205.9774"/>
</g>
<!-- FooterComponent  -->
<g id="node12" class="node">
<title>FooterComponent </title>
<polygon fill="#fb8072" stroke="#000000" points="996.8814,-252 875.1186,-252 875.1186,-216 996.8814,-216 996.8814,-252"/>
<text text-anchor="middle" x="936" y="-229.8" font-family="Times,serif" font-size="14.00" fill="#000000">FooterComponent </text>
</g>
<!-- SharedModule&#45;&gt;FooterComponent  -->
<g id="edge11" class="edge">
<title>SharedModule&#45;&gt;FooterComponent </title>
<path fill="none" stroke="#000000" stroke-dasharray="5,2" d="M697.3483,-179C774.5984,-179 915.3532,-179 915.3532,-179 915.3532,-179 915.3532,-205.9909 915.3532,-205.9909"/>
<polygon fill="#000000" stroke="#000000" points="911.8533,-205.9909 915.3532,-215.9909 918.8533,-205.991 911.8533,-205.9909"/>
</g>
<!-- NotFoundComponent  -->
<g id="node13" class="node">
<title>NotFoundComponent </title>
<polygon fill="#fb8072" stroke="#000000" points="857.6127,-252 716.3873,-252 716.3873,-216 857.6127,-216 857.6127,-252"/>
<text text-anchor="middle" x="787" y="-229.8" font-family="Times,serif" font-size="14.00" fill="#000000">NotFoundComponent </text>
</g>
<!-- SharedModule&#45;&gt;NotFoundComponent  -->
<g id="edge12" class="edge">
<title>SharedModule&#45;&gt;NotFoundComponent </title>
<path fill="none" stroke="#000000" stroke-dasharray="5,2" d="M697.6057,-183C745.8316,-183 811.852,-183 811.852,-183 811.852,-183 811.852,-205.8757 811.852,-205.8757"/>
<polygon fill="#000000" stroke="#000000" points="808.3521,-205.8757 811.852,-215.8757 815.3521,-205.8757 808.3521,-205.8757"/>
</g>
<!-- FilterLeaguesPipe  -->
<g id="node14" class="node">
<title>FilterLeaguesPipe </title>
<polygon fill="#fb8072" stroke="#000000" points="698.8589,-252 577.1411,-252 577.1411,-216 698.8589,-216 698.8589,-252"/>
<text text-anchor="middle" x="638" y="-229.8" font-family="Times,serif" font-size="14.00" fill="#000000">FilterLeaguesPipe </text>
</g>
<!-- SharedModule&#45;&gt;FilterLeaguesPipe  -->
<g id="edge13" class="edge">
<title>SharedModule&#45;&gt;FilterLeaguesPipe </title>
<path fill="none" stroke="#000000" stroke-dasharray="5,2" d="M648,-187.1061C648,-187.1061 648,-205.991 648,-205.991"/>
<polygon fill="#000000" stroke="#000000" points="644.5001,-205.9909 648,-215.991 651.5001,-205.991 644.5001,-205.9909"/>
</g>
<!-- SortPlayersByNumberPipe  -->
<g id="node15" class="node">
<title>SortPlayersByNumberPipe </title>
<polygon fill="#fb8072" stroke="#000000" points="559.6383,-252 388.3617,-252 388.3617,-216 559.6383,-216 559.6383,-252"/>
<text text-anchor="middle" x="474" y="-229.8" font-family="Times,serif" font-size="14.00" fill="#000000">SortPlayersByNumberPipe </text>
</g>
<!-- SharedModule&#45;&gt;SortPlayersByNumberPipe  -->
<g id="edge14" class="edge">
<title>SharedModule&#45;&gt;SortPlayersByNumberPipe </title>
<path fill="none" stroke="#000000" stroke-dasharray="5,2" d="M598.7881,-182C540.7223,-182 451.977,-182 451.977,-182 451.977,-182 451.977,-205.8129 451.977,-205.8129"/>
<polygon fill="#000000" stroke="#000000" points="448.4771,-205.8129 451.977,-215.8129 455.4771,-205.813 448.4771,-205.8129"/>
</g>
<!-- HoverTableRowDirective  -->
<g id="node16" class="node">
<title>HoverTableRowDirective </title>
<polygon fill="#fb8072" stroke="#000000" points="370.3802,-252 205.6198,-252 205.6198,-216 370.3802,-216 370.3802,-252"/>
<text text-anchor="middle" x="288" y="-229.8" font-family="Times,serif" font-size="14.00" fill="#000000">HoverTableRowDirective </text>
</g>
<!-- SharedModule&#45;&gt;HoverTableRowDirective  -->
<g id="edge15" class="edge">
<title>SharedModule&#45;&gt;HoverTableRowDirective </title>
<path fill="none" stroke="#000000" stroke-dasharray="5,2" d="M598.4576,-177C501.135,-177 294.375,-177 294.375,-177 294.375,-177 294.375,-205.9648 294.375,-205.9648"/>
<polygon fill="#000000" stroke="#000000" points="290.8751,-205.9648 294.375,-215.9648 297.8751,-205.9649 290.8751,-205.9648"/>
</g>
<!-- StyleTableTitlesDirective  -->
<g id="node17" class="node">
<title>StyleTableTitlesDirective </title>
<polygon fill="#fb8072" stroke="#000000" points="188.1172,-252 23.8828,-252 23.8828,-216 188.1172,-216 188.1172,-252"/>
<text text-anchor="middle" x="106" y="-229.8" font-family="Times,serif" font-size="14.00" fill="#000000">StyleTableTitlesDirective </text>
</g>
<!-- SharedModule&#45;&gt;StyleTableTitlesDirective  -->
<g id="edge16" class="edge">
<title>SharedModule&#45;&gt;StyleTableTitlesDirective </title>
<path fill="none" stroke="#000000" stroke-dasharray="5,2" d="M598.7082,-172C466.481,-172 113.875,-172 113.875,-172 113.875,-172 113.875,-205.7333 113.875,-205.7333"/>
<polygon fill="#000000" stroke="#000000" points="110.3751,-205.7333 113.875,-215.7333 117.3751,-205.7333 110.3751,-205.7333"/>
</g>
</g>
</svg>
