<?xml version="1.0" encoding="UTF-8" standalone="no"?>
<!DOCTYPE svg PUBLIC "-//W3C//DTD SVG 1.1//EN"
 "http://www.w3.org/Graphics/SVG/1.1/DTD/svg11.dtd">
<!-- Generated by graphviz version 2.40.1 (20161225.0304)
 -->
<!-- Title: dependencies Pages: 1 -->
<svg width="1214pt" height="284pt"
 viewBox="0.00 0.00 1214.00 284.00" xmlns="http://www.w3.org/2000/svg" xmlns:xlink="http://www.w3.org/1999/xlink">
<g id="graph0" class="graph" transform="scale(1 1) rotate(0) translate(4 280)">
<title>dependencies</title>
<polygon fill="#ffffff" stroke="transparent" points="-4,4 -4,-280 1210,-280 1210,4 -4,4"/>
<text text-anchor="start" x="582.0091" y="-42.4" font-family="sans-serif" font-weight="bold" font-size="14.00" fill="#000000">Legend</text>
<polygon fill="#ffffb3" stroke="transparent" points="369,-10 369,-30 389,-30 389,-10 369,-10"/>
<text text-anchor="start" x="392.629" y="-15.4" font-family="sans-serif" font-size="14.00" fill="#000000"> &#160;Declarations</text>
<polygon fill="#8dd3c7" stroke="transparent" points="482,-10 482,-30 502,-30 502,-10 482,-10"/>
<text text-anchor="start" x="505.7251" y="-15.4" font-family="sans-serif" font-size="14.00" fill="#000000"> &#160;Module</text>
<polygon fill="#80b1d3" stroke="transparent" points="568,-10 568,-30 588,-30 588,-10 568,-10"/>
<text text-anchor="start" x="591.7812" y="-15.4" font-family="sans-serif" font-size="14.00" fill="#000000"> &#160;Bootstrap</text>
<polygon fill="#fdb462" stroke="transparent" points="665,-10 665,-30 685,-30 685,-10 665,-10"/>
<text text-anchor="start" x="688.6732" y="-15.4" font-family="sans-serif" font-size="14.00" fill="#000000"> &#160;Providers</text>
<polygon fill="#fb8072" stroke="transparent" points="761,-10 761,-30 781,-30 781,-10 761,-10"/>
<text text-anchor="start" x="784.7258" y="-15.4" font-family="sans-serif" font-size="14.00" fill="#000000"> &#160;Exports</text>
<g id="clust1" class="cluster">
<title>cluster_AppModule</title>
<polygon fill="none" stroke="#000000" stroke-dasharray="1,5" points="8,-70 8,-268 1198,-268 1198,-70 8,-70"/>
</g>
<g id="clust2" class="cluster">
<title>cluster_AppModule_declarations</title>
<polygon fill="none" stroke="#000000" points="648,-78 648,-130 1190,-130 1190,-78 648,-78"/>
</g>
<g id="clust7" class="cluster">
<title>cluster_AppModule_imports</title>
<polygon fill="none" stroke="#000000" points="16,-78 16,-130 640,-130 640,-78 16,-78"/>
</g>
<g id="clust9" class="cluster">
<title>cluster_AppModule_bootstrap</title>
<polygon fill="none" stroke="#000000" points="506,-208 506,-260 630,-260 630,-208 506,-208"/>
</g>
<!-- AppComponent -->
<g id="node1" class="node">
<title>AppComponent</title>
<polygon fill="#ffffb3" stroke="#000000" points="1181.9399,-122 1076.0601,-122 1076.0601,-86 1181.9399,-86 1181.9399,-122"/>
<text text-anchor="middle" x="1129" y="-99.8" font-family="Times,serif" font-size="14.00" fill="#000000">AppComponent</text>
</g>
<!-- AppModule -->
<g id="node5" class="node">
<title>AppModule</title>
<polygon fill="#8dd3c7" stroke="#000000" points="609.6571,-187 606.6571,-191 585.6571,-191 582.6571,-187 526.3429,-187 526.3429,-151 609.6571,-151 609.6571,-187"/>
<text text-anchor="middle" x="568" y="-164.8" font-family="Times,serif" font-size="14.00" fill="#000000">AppModule</text>
</g>
<!-- AppComponent&#45;&gt;AppModule -->
<g id="edge1" class="edge">
<title>AppComponent&#45;&gt;AppModule</title>
<path fill="none" stroke="#000000" d="M1129,-122.0109C1129,-144.4852 1129,-180 1129,-180 1129,-180 619.7079,-180 619.7079,-180"/>
<polygon fill="#000000" stroke="#000000" points="619.7079,-176.5001 609.7079,-180 619.7078,-183.5001 619.7079,-176.5001"/>
</g>
<!-- FixturesComponent -->
<g id="node2" class="node">
<title>FixturesComponent</title>
<polygon fill="#ffffb3" stroke="#000000" points="1058.7162,-122 931.2838,-122 931.2838,-86 1058.7162,-86 1058.7162,-122"/>
<text text-anchor="middle" x="995" y="-99.8" font-family="Times,serif" font-size="14.00" fill="#000000">FixturesComponent</text>
</g>
<!-- FixturesComponent&#45;&gt;AppModule -->
<g id="edge2" class="edge">
<title>FixturesComponent&#45;&gt;AppModule</title>
<path fill="none" stroke="#000000" d="M995,-122.1289C995,-142.5724 995,-173 995,-173 995,-173 619.72,-173 619.72,-173"/>
<polygon fill="#000000" stroke="#000000" points="619.7201,-169.5001 609.72,-173 619.72,-176.5001 619.7201,-169.5001"/>
</g>
<!-- HomeComponent -->
<g id="node3" class="node">
<title>HomeComponent</title>
<polygon fill="#ffffb3" stroke="#000000" points="913.5451,-122 798.4549,-122 798.4549,-86 913.5451,-86 913.5451,-122"/>
<text text-anchor="middle" x="856" y="-99.8" font-family="Times,serif" font-size="14.00" fill="#000000">HomeComponent</text>
</g>
<!-- HomeComponent&#45;&gt;AppModule -->
<g id="edge3" class="edge">
<title>HomeComponent&#45;&gt;AppModule</title>
<path fill="none" stroke="#000000" d="M856,-122.2667C856,-140.5552 856,-166 856,-166 856,-166 619.8777,-166 619.8777,-166"/>
<polygon fill="#000000" stroke="#000000" points="619.8777,-162.5001 609.8777,-166 619.8776,-169.5001 619.8777,-162.5001"/>
</g>
<!-- ContactComponent -->
<g id="node4" class="node">
<title>ContactComponent</title>
<polygon fill="#ffffb3" stroke="#000000" points="780.3795,-122 655.6205,-122 655.6205,-86 780.3795,-86 780.3795,-122"/>
<text text-anchor="middle" x="718" y="-99.8" font-family="Times,serif" font-size="14.00" fill="#000000">ContactComponent</text>
</g>
<!-- ContactComponent&#45;&gt;AppModule -->
<g id="edge4" class="edge">
<title>ContactComponent&#45;&gt;AppModule</title>
<path fill="none" stroke="#000000" d="M718,-122.0091C718,-138.0494 718,-159 718,-159 718,-159 619.7834,-159 619.7834,-159"/>
<polygon fill="#000000" stroke="#000000" points="619.7834,-155.5001 609.7834,-159 619.7833,-162.5001 619.7834,-155.5001"/>
</g>
<!-- AppComponent  -->
<g id="node11" class="node">
<title>AppComponent </title>
<polygon fill="#80b1d3" stroke="#000000" points="622.439,-252 513.561,-252 513.561,-216 622.439,-216 622.439,-252"/>
<text text-anchor="middle" x="568" y="-229.8" font-family="Times,serif" font-size="14.00" fill="#000000">AppComponent </text>
</g>
<!-- AppModule&#45;&gt;AppComponent  -->
<g id="edge10" class="edge">
<title>AppModule&#45;&gt;AppComponent </title>
<path fill="none" stroke="#000000" stroke-dasharray="1,5" d="M568,-187.1061C568,-187.1061 568,-205.991 568,-205.991"/>
<polygon fill="#000000" stroke="#000000" points="564.5001,-205.9909 568,-215.991 571.5001,-205.991 564.5001,-205.9909"/>
</g>
<!-- AppRoutingModule -->
<g id="node6" class="node">
<title>AppRoutingModule</title>
<polygon fill="#8dd3c7" stroke="#000000" points="632.2744,-122 629.2744,-126 608.2744,-126 605.2744,-122 503.7256,-122 503.7256,-86 632.2744,-86 632.2744,-122"/>
<text text-anchor="middle" x="568" y="-99.8" font-family="Times,serif" font-size="14.00" fill="#000000">AppRoutingModule</text>
</g>
<!-- AppRoutingModule&#45;&gt;AppModule -->
<g id="edge5" class="edge">
<title>AppRoutingModule&#45;&gt;AppModule</title>
<path fill="none" stroke="#000000" d="M568,-122.1061C568,-122.1061 568,-140.991 568,-140.991"/>
<polygon fill="#000000" stroke="#000000" points="564.5001,-140.9909 568,-150.991 571.5001,-140.991 564.5001,-140.9909"/>
</g>
<!-- AuthModule -->
<g id="node7" class="node">
<title>AuthModule</title>
<polygon fill="#8dd3c7" stroke="#000000" points="485.5482,-122 482.5482,-126 461.5482,-126 458.5482,-122 398.4518,-122 398.4518,-86 485.5482,-86 485.5482,-122"/>
<text text-anchor="middle" x="442" y="-99.8" font-family="Times,serif" font-size="14.00" fill="#000000">AuthModule</text>
</g>
<!-- AuthModule&#45;&gt;AppModule -->
<g id="edge6" class="edge">
<title>AuthModule&#45;&gt;AppModule</title>
<path fill="none" stroke="#000000" d="M442,-122.0091C442,-138.0494 442,-159 442,-159 442,-159 516.0438,-159 516.0438,-159"/>
<polygon fill="#000000" stroke="#000000" points="516.0439,-162.5001 526.0438,-159 516.0438,-155.5001 516.0439,-162.5001"/>
</g>
<!-- SharedModule -->
<g id="node8" class="node">
<title>SharedModule</title>
<polygon fill="#8dd3c7" stroke="#000000" points="380.4231,-122 377.4231,-126 356.4231,-126 353.4231,-122 281.5769,-122 281.5769,-86 380.4231,-86 380.4231,-122"/>
<text text-anchor="middle" x="331" y="-99.8" font-family="Times,serif" font-size="14.00" fill="#000000">SharedModule</text>
</g>
<!-- SharedModule&#45;&gt;AppModule -->
<g id="edge7" class="edge">
<title>SharedModule&#45;&gt;AppModule</title>
<path fill="none" stroke="#000000" d="M331,-122.2667C331,-140.5552 331,-166 331,-166 331,-166 516.1747,-166 516.1747,-166"/>
<polygon fill="#000000" stroke="#000000" points="516.1747,-169.5001 526.1747,-166 516.1747,-162.5001 516.1747,-169.5001"/>
</g>
<!-- CoreModule -->
<g id="node9" class="node">
<title>CoreModule</title>
<polygon fill="#8dd3c7" stroke="#000000" points="263.2619,-122 260.2619,-126 239.2619,-126 236.2619,-122 176.7381,-122 176.7381,-86 263.2619,-86 263.2619,-122"/>
<text text-anchor="middle" x="220" y="-99.8" font-family="Times,serif" font-size="14.00" fill="#000000">CoreModule</text>
</g>
<!-- CoreModule&#45;&gt;AppModule -->
<g id="edge8" class="edge">
<title>CoreModule&#45;&gt;AppModule</title>
<path fill="none" stroke="#000000" d="M220,-122.1289C220,-142.5724 220,-173 220,-173 220,-173 516.0231,-173 516.0231,-173"/>
<polygon fill="#000000" stroke="#000000" points="516.0231,-176.5001 526.0231,-173 516.023,-169.5001 516.0231,-176.5001"/>
</g>
<!-- CompetitionsModule -->
<g id="node10" class="node">
<title>CompetitionsModule</title>
<polygon fill="#8dd3c7" stroke="#000000" points="158.4986,-122 155.4986,-126 134.4986,-126 131.4986,-122 23.5014,-122 23.5014,-86 158.4986,-86 158.4986,-122"/>
<text text-anchor="middle" x="91" y="-99.8" font-family="Times,serif" font-size="14.00" fill="#000000">CompetitionsModule</text>
</g>
<!-- CompetitionsModule&#45;&gt;AppModule -->
<g id="edge9" class="edge">
<title>CompetitionsModule&#45;&gt;AppModule</title>
<path fill="none" stroke="#000000" d="M91,-122.0109C91,-144.4852 91,-180 91,-180 91,-180 516.0875,-180 516.0875,-180"/>
<polygon fill="#000000" stroke="#000000" points="516.0875,-183.5001 526.0875,-180 516.0875,-176.5001 516.0875,-183.5001"/>
</g>
</g>
</svg>
