<?xml version="1.0" encoding="UTF-8" standalone="no"?>
<!DOCTYPE svg PUBLIC "-//W3C//DTD SVG 1.1//EN"
 "http://www.w3.org/Graphics/SVG/1.1/DTD/svg11.dtd">
<!-- Generated by graphviz version 2.40.1 (20161225.0304)
 -->
<!-- Title: dependencies Pages: 1 -->
<svg width="504pt" height="211pt"
 viewBox="0.00 0.00 504.00 211.00" xmlns="http://www.w3.org/2000/svg" xmlns:xlink="http://www.w3.org/1999/xlink">
<g id="graph0" class="graph" transform="scale(1 1) rotate(0) translate(4 207)">
<title>dependencies</title>
<polygon fill="#ffffff" stroke="transparent" points="-4,4 -4,-207 500,-207 500,4 -4,4"/>
<text text-anchor="start" x="227.0091" y="-42.4" font-family="sans-serif" font-weight="bold" font-size="14.00" fill="#000000">Legend</text>
<polygon fill="#ffffb3" stroke="transparent" points="14,-10 14,-30 34,-30 34,-10 14,-10"/>
<text text-anchor="start" x="37.629" y="-15.4" font-family="sans-serif" font-size="14.00" fill="#000000"> &#160;Declarations</text>
<polygon fill="#8dd3c7" stroke="transparent" points="127,-10 127,-30 147,-30 147,-10 127,-10"/>
<text text-anchor="start" x="150.7251" y="-15.4" font-family="sans-serif" font-size="14.00" fill="#000000"> &#160;Module</text>
<polygon fill="#80b1d3" stroke="transparent" points="213,-10 213,-30 233,-30 233,-10 213,-10"/>
<text text-anchor="start" x="236.7812" y="-15.4" font-family="sans-serif" font-size="14.00" fill="#000000"> &#160;Bootstrap</text>
<polygon fill="#fdb462" stroke="transparent" points="310,-10 310,-30 330,-30 330,-10 310,-10"/>
<text text-anchor="start" x="333.6732" y="-15.4" font-family="sans-serif" font-size="14.00" fill="#000000"> &#160;Providers</text>
<polygon fill="#fb8072" stroke="transparent" points="406,-10 406,-30 426,-30 426,-10 406,-10"/>
<text text-anchor="start" x="429.7258" y="-15.4" font-family="sans-serif" font-size="14.00" fill="#000000"> &#160;Exports</text>
<g id="clust1" class="cluster">
<title>cluster_CoreModule</title>
<polygon fill="none" stroke="#000000" stroke-dasharray="1,5" points="36.5,-70 36.5,-195 459.5,-195 459.5,-70 36.5,-70"/>
</g>
<g id="clust6" class="cluster">
<title>cluster_CoreModule_providers</title>
<polygon fill="none" stroke="#000000" points="44.5,-78 44.5,-130 451.5,-130 451.5,-78 44.5,-78"/>
</g>
<!-- AuthService -->
<g id="node1" class="node">
<title>AuthService</title>
<ellipse fill="#fdb462" stroke="#000000" cx="384.5" cy="-104" rx="59.1083" ry="18"/>
<text text-anchor="middle" x="384.5" y="-99.8" font-family="Times,serif" font-size="14.00" fill="#000000">AuthService</text>
</g>
<!-- CoreModule -->
<g id="node4" class="node">
<title>CoreModule</title>
<polygon fill="#8dd3c7" stroke="#000000" points="295.7619,-187 292.7619,-191 271.7619,-191 268.7619,-187 209.2381,-187 209.2381,-151 295.7619,-151 295.7619,-187"/>
<text text-anchor="middle" x="252.5" y="-164.8" font-family="Times,serif" font-size="14.00" fill="#000000">CoreModule</text>
</g>
<!-- AuthService&#45;&gt;CoreModule -->
<g id="edge1" class="edge">
<title>AuthService&#45;&gt;CoreModule</title>
<path fill="none" stroke="#000000" d="M384.5,-122.1061C384.5,-141.3391 384.5,-169 384.5,-169 384.5,-169 306.0876,-169 306.0876,-169"/>
<polygon fill="#000000" stroke="#000000" points="306.0876,-165.5001 296.0876,-169 306.0875,-172.5001 306.0876,-165.5001"/>
</g>
<!-- AuthGuard -->
<g id="node2" class="node">
<title>AuthGuard</title>
<ellipse fill="#fdb462" stroke="#000000" cx="252.5" cy="-104" rx="54.4566" ry="18"/>
<text text-anchor="middle" x="252.5" y="-99.8" font-family="Times,serif" font-size="14.00" fill="#000000">AuthGuard</text>
</g>
<!-- AuthGuard&#45;&gt;CoreModule -->
<g id="edge2" class="edge">
<title>AuthGuard&#45;&gt;CoreModule</title>
<path fill="none" stroke="#000000" d="M252.5,-122.1061C252.5,-122.1061 252.5,-140.991 252.5,-140.991"/>
<polygon fill="#000000" stroke="#000000" points="249.0001,-140.9909 252.5,-150.991 256.0001,-140.991 249.0001,-140.9909"/>
</g>
<!-- UnauthGuard -->
<g id="node3" class="node">
<title>UnauthGuard</title>
<ellipse fill="#fdb462" stroke="#000000" cx="116.5" cy="-104" rx="63.6871" ry="18"/>
<text text-anchor="middle" x="116.5" y="-99.8" font-family="Times,serif" font-size="14.00" fill="#000000">UnauthGuard</text>
</g>
<!-- UnauthGuard&#45;&gt;CoreModule -->
<g id="edge3" class="edge">
<title>UnauthGuard&#45;&gt;CoreModule</title>
<path fill="none" stroke="#000000" d="M116.5,-122.1061C116.5,-141.3391 116.5,-169 116.5,-169 116.5,-169 199.0948,-169 199.0948,-169"/>
<polygon fill="#000000" stroke="#000000" points="199.0949,-172.5001 209.0948,-169 199.0948,-165.5001 199.0949,-172.5001"/>
</g>
</g>
</svg>
